<?xml version="1.0" encoding="utf-8"?>
<!-- Generator: Adobe Illustrator 28.1.0, SVG Export Plug-In . SVG Version: 6.00 Build 0)  -->
<svg version="1.1" id="Capa_1" xmlns="http://www.w3.org/2000/svg" xmlns:xlink="http://www.w3.org/1999/xlink" x="0px" y="0px"
	 viewBox="0 0 552 335" style="enable-background:new 0 0 552 335;" xml:space="preserve">
<style type="text/css">
	.st0{fill:#FFFFFF;}
	.st1{fill:#783CFF;}
</style>
<g>
	<g>
		<g>
			<g>
				<g>
					<g>
						<rect x="113.8" y="23.7" transform="matrix(0.1677 -0.9858 0.9858 0.1677 68.9019 161.8464)" width="32.9" height="32.9"/>
					</g>
				</g>
			</g>
		</g>
		<g>
			<g>
				<path class="st0" d="M126.6,46c-0.2,0-0.5-0.1-0.6-0.3l-6.4-8.7c-0.3-0.3-0.2-0.8,0.2-1.1c0.3-0.3,0.8-0.2,1.1,0.2l5.9,8.1
					l17.9-12c0.4-0.2,0.8-0.1,1.1,0.2c0.2,0.4,0.1,0.8-0.2,1.1l-18.5,12.4C126.9,45.9,126.8,46,126.6,46z"/>
			</g>
		</g>
	</g>
	<g>
		<g>
			<g>
				
					<rect x="283.5" y="5.6" transform="matrix(0.7554 -0.6552 0.6552 0.7554 61.0123 197.3946)" class="st0" width="22.8" height="22.8"/>
			</g>
		</g>
		<g>
			<g>
				<g>
					<g>
						<path d="M293.8,33.8c-0.2,0-0.4-0.1-0.6-0.3l-14.9-17.2c-0.3-0.3-0.2-0.8,0.1-1.1l17.2-14.9c0.3-0.3,0.8-0.2,1.1,0.1
							l14.9,17.2c0.1,0.2,0.2,0.4,0.2,0.6c0,0.2-0.1,0.4-0.3,0.5l-17.2,14.9C294.2,33.7,294,33.8,293.8,33.8z M280,15.9l13.9,16
							l16-13.9L296,2L280,15.9z"/>
					</g>
				</g>
			</g>
		</g>
		<g>
			<g>
				<path d="M296,21.9C296,21.9,296,21.9,296,21.9l-7.5-0.4c-0.4,0-0.7-0.4-0.7-0.8c0-0.4,0.4-0.7,0.8-0.7l6.7,0.4l1.4-14.6
					c0-0.4,0.4-0.7,0.8-0.7c0.4,0,0.7,0.4,0.7,0.8l-1.5,15.3C296.8,21.6,296.4,21.9,296,21.9z"/>
			</g>
		</g>
	</g>
	<g>
		<g>
			<g>
				
					<rect x="404.3" y="39.5" transform="matrix(0.254 -0.9672 0.9672 0.254 259.938 447.4196)" class="st1" width="31.4" height="31.4"/>
			</g>
		</g>
		<g>
			<g>
				<g>
					<g>
						<path d="M431.2,75.2c-0.1,0-0.1,0-0.2,0l-30.4-8c-0.2-0.1-0.4-0.2-0.5-0.4c-0.1-0.2-0.1-0.4-0.1-0.6l8-30.4
							c0.1-0.4,0.5-0.7,0.9-0.5l30.4,8c0.2,0.1,0.4,0.2,0.5,0.4c0.1,0.2,0.1,0.4,0.1,0.6l-8,30.4C431.9,74.9,431.6,75.2,431.2,75.2z
							 M401.8,65.9l28.9,7.6l7.6-28.9L409.4,37L401.8,65.9z"/>
					</g>
				</g>
			</g>
		</g>
		<g>
			<g>
				<path class="st0" d="M416.1,60.5c-0.3,0-0.5-0.1-0.7-0.4l-5.3-8.8c-0.2-0.4-0.1-0.8,0.3-1.1c0.4-0.2,0.8-0.1,1.1,0.3l4.9,8.2
					l18-9.9c0.4-0.2,0.8-0.1,1,0.3c0.2,0.4,0.1,0.8-0.3,1l-18.6,10.3C416.4,60.5,416.2,60.5,416.1,60.5z"/>
			</g>
		</g>
	</g>
	<g>
		<g>
			<g>
				<g>
					<g>
						
							<rect x="173" y="113.9" transform="matrix(0.8585 -0.5128 0.5128 0.8585 -38.9634 113.6547)" class="st1" width="27" height="27"/>
					</g>
				</g>
			</g>
		</g>
		<g>
			<g>
				<path d="M181.8,146.7c-0.3,0-0.5-0.1-0.7-0.4l-13.9-23.2c-0.2-0.4-0.1-0.8,0.3-1.1l23.2-13.9c0.4-0.2,0.8-0.1,1.1,0.3l13.9,23.2
					c0.1,0.2,0.1,0.4,0.1,0.6c0,0.2-0.2,0.4-0.4,0.5l-23.2,13.9C182.1,146.7,182,146.7,181.8,146.7z M169,123l13.1,21.9l21.9-13.1
					L190.9,110L169,123z"/>
			</g>
		</g>
		<g>
			<g>
				<path class="st0" d="M186.9,133.3c-0.1,0-0.1,0-0.2,0l-8.6-2c-0.4-0.1-0.7-0.5-0.6-0.9c0.1-0.4,0.5-0.7,0.9-0.6l7.9,1.9
					l4.7-16.9c0.1-0.4,0.5-0.6,0.9-0.5c0.4,0.1,0.6,0.5,0.5,0.9l-4.9,17.6C187.6,133.1,187.3,133.3,186.9,133.3z"/>
			</g>
		</g>
	</g>
</g>
</svg>
