<?xml version="1.0" encoding="utf-8"?>
<!-- Generator: Adobe Illustrator 28.1.0, SVG Export Plug-In . SVG Version: 6.00 Build 0)  -->
<svg version="1.1" id="Capa_1" xmlns="http://www.w3.org/2000/svg" xmlns:xlink="http://www.w3.org/1999/xlink" x="0px" y="0px"
	 viewBox="0 0 552 335" style="enable-background:new 0 0 552 335;" xml:space="preserve">
<style type="text/css">
	.st0{fill:#FFFFFF;}
	.st1{fill:#783CFF;}
	.st2{fill:#FF8C78;}
</style>
<g>
	<g>
		<path class="st0" d="M228.6,219.2c-12.8-18.8-21.6-27.8-38.1-41.9c-14.7-12.6-35.4-14.4-54-12.7c-14.1,1.4-43.3,5.6-48.6,30.4
			c-3.6,17,8.2,69.1,8.2,69.1h80.4l0-7c19.6,19.1,43.2,19,54.1,7.8C240.7,254.8,239.5,235.1,228.6,219.2z"/>
	</g>
	<g>
		<path d="M210.5,273.4c-1.2,0-2.5-0.1-3.8-0.2c-5.1-0.5-10.3-2-15.4-4.5c-4.9-2.4-9.7-5.7-14.1-9.7v5.2c0,0.4-0.3,0.8-0.8,0.8H96
			c-0.4,0-0.7-0.2-0.8-0.6c0-0.1-3-13.2-5.5-28.2c-3.3-20.2-4.2-34.1-2.7-41.2c2.3-11,9.6-19.2,21.5-24.5c9.8-4.4,20.6-5.8,27.9-6.5
			c23.6-2.3,41.9,2.1,54.6,12.8c16.1,13.7,25,22.6,38.3,42c5.4,7.9,8.5,16.9,9,25.4c0.4,8.7-2.1,16.3-7.1,21.4
			C226.2,270.6,218.8,273.4,210.5,273.4z M176.5,256.4c0.2,0,0.4,0.1,0.5,0.2c8.9,8.7,19.5,14,29.8,15c9.3,0.9,17.8-1.7,23.2-7.2
			c9.6-9.8,8.7-29-2.1-44.8c-13.2-19.3-22-28.1-38-41.7c-12.3-10.5-30.3-14.7-53.4-12.5c-28.6,2.7-44.3,12.5-48,29.8
			c-3.4,15.7,6.8,62.3,8,68.2h79.1v-6.2c0-0.3,0.2-0.6,0.5-0.7C176.3,256.4,176.4,256.4,176.5,256.4z"/>
	</g>
	<g>
		<g>
			<path d="M96,264.2h80.4c0,0,3.4,5.7,4.9,18.2l-86,0L96,264.2z"/>
		</g>
	</g>
	<g>
		<g>
			<path d="M95.3,283.1c-0.2,0-0.4-0.1-0.6-0.2c-0.1-0.2-0.2-0.4-0.2-0.6l0.7-18.2c0-0.4,0.4-0.7,0.8-0.7h80.5
				c0.3,0,0.5,0.1,0.7,0.4c0.1,0.2,3.5,6,5,18.5c0,0.2,0,0.4-0.2,0.6c-0.1,0.2-0.4,0.3-0.6,0.3L95.3,283.1z M96.8,264.9l-0.6,16.6
				l84.4,0c-1.3-9.8-3.8-15.2-4.5-16.6H96.8z"/>
		</g>
	</g>
	<g>
		<ellipse transform="matrix(0.7968 -0.6042 0.6042 0.7968 -56.7565 107.3205)" cx="131.2" cy="138.1" rx="18.7" ry="18.7"/>
	</g>
	<g>
		<path class="st0" d="M147.8,166.7l-4.8-14.1c-9,0-5.7-8.1-5.7-8.1l-4.2-4.7c-7.1,2.7-8.5-4.3-8.5-4.3c-7.3,1.6-8.5-4.4-8.5-4.4
			c-2,1.1-4.2,4.4-3.8,7.7c1.6,13.7,0.9,24.7,13.9,23.4l1.5,8L147.8,166.7z"/>
	</g>
	<g>
		<path d="M127.2,168.7c-0.4,0-0.7-0.3-0.8-0.6l-0.9-5c-3.5,0.2-6.2-0.4-8.2-2.1c-3.9-3.2-4.6-9.8-5.3-17.4
			c-0.2-1.5-0.3-3.1-0.5-4.8c-0.4-3.5,1.9-7.2,4.2-8.5c0.2-0.1,0.5-0.1,0.7,0c0.2,0.1,0.4,0.3,0.4,0.5c0,0,0.5,2,2.3,3.2
			c1.4,0.9,3.1,1.1,5.3,0.6c0.2,0,0.4,0,0.6,0.1c0.2,0.1,0.3,0.3,0.3,0.5c0,0,0.6,2.7,2.6,3.8c1.3,0.7,2.9,0.7,4.9,0
			c0.3-0.1,0.6,0,0.8,0.2l4.2,4.7c0.2,0.2,0.2,0.5,0.1,0.8c0,0-1.3,3.2,0.1,5.2c0.8,1.2,2.4,1.8,4.9,1.8c0.3,0,0.6,0.2,0.7,0.5
			l4.2,12.2c0.1,0.4-0.1,0.8-0.5,1c-0.4,0.1-0.8-0.1-1-0.5l-4-11.7c-2.7-0.1-4.5-0.9-5.6-2.5c-1.5-2.2-0.8-5-0.4-6.2l-3.5-4
			c-2.2,0.7-4.1,0.6-5.7-0.2c-1.9-1.1-2.8-3-3.2-4.1c-2.3,0.4-4.2,0-5.8-1c-1.4-0.9-2.2-2.2-2.6-3.1c-1.5,1.3-3,3.8-2.7,6.4
			c0.2,1.6,0.3,3.2,0.5,4.8c0.7,7.2,1.3,13.5,4.8,16.3c1.8,1.5,4.3,2,7.8,1.7c0.4,0,0.8,0.2,0.8,0.6l1,5.7c0.1,0.4-0.2,0.8-0.6,0.9
			C127.3,168.7,127.3,168.7,127.2,168.7z"/>
	</g>
	<g>
		<path d="M126.2,163c-0.4,0-0.7-0.3-0.8-0.6c-0.1-0.4,0.2-0.8,0.6-0.9c3.8-0.7,6.6-2.3,6.7-2.4c0.4-0.2,0.8-0.1,1.1,0.3
			c0.2,0.4,0.1,0.8-0.3,1.1c-0.1,0.1-3.1,1.8-7.2,2.5C126.3,163,126.2,163,126.2,163z"/>
	</g>
	<g>
		<path d="M127.1,167.4c0,0,2.7,1.6,4.8-0.5s1.7-7.4,1.7-7.4l-7.5,2.8L127.1,167.4z"/>
	</g>
	<g>
		<path d="M119,151.6c-0.4,0-0.7-0.3-0.8-0.7l-1.4-8.9c-0.1-0.4,0.2-0.8,0.6-0.9c0.4-0.1,0.8,0.2,0.9,0.6l1.4,8.9
			c0.1,0.4-0.2,0.8-0.6,0.9C119.1,151.6,119.1,151.6,119,151.6z"/>
	</g>
	<g>
		<path d="M126.4,142.2c0.2,0.7-0.2,1.3-0.9,1.5c-0.7,0.2-1.3-0.2-1.5-0.9c-0.2-0.7,0.2-1.3,0.9-1.5
			C125.6,141.2,126.2,141.6,126.4,142.2z"/>
	</g>
	<g>
		<path d="M117.7,144.5c0.2,0.7-0.2,1.3-0.9,1.5c-0.7,0.2-1.3-0.2-1.5-0.9c-0.2-0.7,0.2-1.3,0.9-1.5
			C116.9,143.5,117.6,143.9,117.7,144.5z"/>
	</g>
	<g>
		<g>
			<circle class="st0" cx="136.3" cy="142.5" r="5.5"/>
		</g>
		<g>
			<path d="M135.5,144.5c-0.1,0-0.2,0-0.3-0.1c-0.4-0.2-0.5-0.6-0.4-1l1.5-3.1c0.2-0.4,0.6-0.5,1-0.4c0.4,0.2,0.5,0.6,0.4,1
				l-1.5,3.1C136,144.3,135.8,144.5,135.5,144.5z"/>
		</g>
	</g>
	<g>
		<circle class="st1" cx="136.2" cy="148.8" r="2.6"/>
	</g>
	<g>
		<g>
			<rect x="27.4" y="77.1" class="st0" width="56.9" height="43.4"/>
		</g>
		<g>
			<rect x="27.4" y="77.1" class="st2" width="18.3" height="18.3"/>
		</g>
		<g>
			<path d="M84.3,121.2H27.4c-0.4,0-0.8-0.3-0.8-0.8V77.1c0-0.4,0.3-0.8,0.8-0.8h56.9c0.4,0,0.8,0.3,0.8,0.8v43.4
				C85.1,120.9,84.7,121.2,84.3,121.2z M28.1,119.7h55.4V77.8H28.1V119.7z"/>
		</g>
	</g>
	<g>
		<path d="M134.6,182.9c-7.3,0-12.9-3.2-16.5-6c-4.1-3.3-6.3-6.7-6.4-6.8c-0.2-0.4-0.1-0.8,0.2-1.1c0.4-0.2,0.8-0.1,1.1,0.2
			c0,0.1,2.2,3.4,6.1,6.5c5.3,4.2,11,6.1,17.1,5.6c7.7-0.5,14-5,18-8.7c4.4-4,7-7.9,7-8c0.2-0.4,0.7-0.5,1.1-0.2
			c0.4,0.2,0.5,0.7,0.2,1.1c-0.1,0.2-2.7,4.1-7.2,8.2c-4.2,3.8-10.9,8.5-19,9.1C135.8,182.9,135.2,182.9,134.6,182.9z"/>
	</g>
	<g>
		<g>
			<g>
				<g>
					<g>
						<g>
							<rect x="0.8" y="177.7" class="st0" width="138.9" height="112.5"/>
						</g>
					</g>
					<g>
						<g>
							<rect x="0.8" y="177.7" class="st1" width="138.9" height="9"/>
						</g>
					</g>
					<g>
						<g>
							<path d="M139.6,291.1H0.8c-0.4,0-0.8-0.3-0.8-0.8V177.8c0-0.4,0.3-0.8,0.8-0.8h138.9c0.4,0,0.8,0.3,0.8,0.8v112.5
								C140.4,290.7,140,291.1,139.6,291.1z M1.5,289.5h137.3v-111H1.5V289.5z"/>
						</g>
					</g>
				</g>
			</g>
			<g>
				<g>
					<circle cx="134.3" cy="182" r="2"/>
				</g>
				<g>
					<circle class="st0" cx="119.3" cy="182" r="2"/>
				</g>
				<g>
					
						<ellipse transform="matrix(9.853861e-02 -0.9951 0.9951 9.853861e-02 -66.7522 290.2753)" class="st2" cx="126.8" cy="182" rx="2" ry="2"/>
				</g>
			</g>
		</g>
	</g>
	<g>
		<g>
			<g>
				
					<rect x="94.8" y="199.3" transform="matrix(0.8972 -0.4416 0.4416 0.8972 -79.2712 74.6867)" class="st2" width="52" height="16.7"/>
			</g>
			<g>
				<path d="M101.2,227.4c-0.3,0-0.6-0.2-0.7-0.4l-7.4-15c-0.1-0.2-0.1-0.4,0-0.6c0.1-0.2,0.2-0.4,0.4-0.4l46.6-22.9
					c0.2-0.1,0.4-0.1,0.6,0c0.2,0.1,0.4,0.2,0.4,0.4l7.4,15c0.2,0.4,0,0.8-0.4,1l-46.6,22.9C101.4,227.3,101.3,227.4,101.2,227.4z
					 M94.9,212l6.7,13.6l45.2-22.3l-6.7-13.6L94.9,212z"/>
			</g>
			<g>
				<polygon class="st0" points="101.2,226.6 84.6,225.5 93.8,211.6 				"/>
			</g>
			<g>
				<path d="M101.2,227.4C101.2,227.4,101.2,227.4,101.2,227.4l-16.6-1.1c-0.3,0-0.5-0.2-0.6-0.4c-0.1-0.2-0.1-0.5,0.1-0.8l9.2-13.8
					c0.2-0.2,0.4-0.4,0.7-0.3c0.3,0,0.5,0.2,0.6,0.4l7.4,15c0.1,0.2,0.1,0.5-0.1,0.8C101.7,227.2,101.4,227.4,101.2,227.4z
					 M86,224.8l13.9,1l-6.2-12.6L86,224.8z"/>
			</g>
			<g>
				<polygon points="84.6,225.5 89.3,218.3 93.1,226 84.6,225.5 				"/>
			</g>
			<g>
				<path d="M99.2,223.4c-0.3,0-0.6-0.2-0.7-0.4c-0.2-0.4,0-0.8,0.4-1l42.5-20.9c0.4-0.2,0.8,0,1,0.4c0.2,0.4,0,0.8-0.4,1
					l-42.5,20.9C99.5,223.4,99.4,223.4,99.2,223.4z"/>
			</g>
			<g>
				<path d="M95.8,216.4c-0.3,0-0.6-0.2-0.7-0.4c-0.2-0.4,0-0.8,0.4-1L138,194c0.4-0.2,0.8,0,1,0.4c0.2,0.4,0,0.8-0.4,1l-42.5,20.9
					C96,216.3,95.9,216.4,95.8,216.4z"/>
			</g>
			<g>
				<path class="st0" d="M143.7,205.7l4.9-2.4c4.1-2,5.8-7,3.8-11.2c-2-4.1-7-5.8-11.2-3.8l-4.9,2.4L143.7,205.7z"/>
			</g>
			<g>
				<path d="M143.7,206.4c-0.3,0-0.6-0.2-0.7-0.4l-7.4-15c-0.1-0.2-0.1-0.4,0-0.6c0.1-0.2,0.2-0.4,0.4-0.4l4.9-2.4
					c2.2-1.1,4.7-1.2,7-0.5c2.3,0.8,4.2,2.4,5.2,4.6c2.2,4.5,0.4,10-4.2,12.2l-4.9,2.4C144,206.4,143.8,206.4,143.7,206.4z
					 M137.4,191l6.7,13.6l4.2-2.1c3.7-1.8,5.3-6.4,3.5-10.1c-0.9-1.8-2.4-3.2-4.4-3.8c-1.9-0.7-4-0.5-5.8,0.4L137.4,191z"/>
			</g>
			<g>
				
					<rect x="132.5" y="194.1" transform="matrix(-0.4416 -0.8972 0.8972 -0.4416 25.5842 411.4854)" class="st0" width="16.7" height="7.3"/>
			</g>
			<g>
				<path d="M141.3,207.6c-0.1,0-0.2,0-0.2,0c-0.2-0.1-0.4-0.2-0.4-0.4l-7.4-15c-0.2-0.4,0-0.8,0.4-1l6.5-3.2c0.2-0.1,0.4-0.1,0.6,0
					c0.2,0.1,0.4,0.2,0.4,0.4l7.4,15c0.2,0.4,0,0.8-0.4,1l-6.5,3.2C141.5,207.6,141.4,207.6,141.3,207.6z M134.9,192.3l6.7,13.6
					l5.2-2.5l-6.7-13.6L134.9,192.3z"/>
			</g>
		</g>
		<g>
			<path class="st0" d="M158.5,202.8c0,0-11.8-10.2-23.9-10.9c-12.1-0.8-20.4-1.3-28.1,4.7c-7.3,5.7-7.6,10.8-3.5,11.4
				c4.2,0.6,11-2.4,13.2-3.7c1.3-0.7,5.5-0.3,7.3-0.4c0,0-3.4,3.8-4.1,5.4c-1.8,4.2-4.4,7.7,2.8,10.8c0,0,0.1,7.9,11.2,8.4
				c0,0,8.7,10.6,15.4,3.9c0,0,3.9,6.3,10.8,4.7l3,1.9c7.2,4.6,16.8,2.4,21.3-4.9c4.8-7.8,1.8-17.9-6.4-21.9
				C168.8,207.8,159.2,203.2,158.5,202.8z"/>
		</g>
		<g>
			<path d="M171,242.1c-3,0-6-0.9-8.6-2.5l-2.7-1.7c-3,0.6-5.9-0.1-8.4-1.9c-1.1-0.9-2-1.8-2.5-2.4c-1.6,1.3-3.4,1.9-5.3,1.8
				c-4.9-0.2-9.3-4.9-10.4-6.1c-5.8-0.3-8.7-2.7-10-4.7c-1.1-1.6-1.5-3.2-1.6-3.9c-2.5-1.1-3.9-2.4-4.5-4c-0.8-2.1,0.1-4.2,1.1-6.4
				c0.2-0.4,0.4-0.9,0.6-1.3c0.5-1.1,2-3,3.1-4.3c-0.2,0-0.4,0-0.6,0c-1.6,0-3.9-0.1-4.7,0.3c-2.1,1.2-8,3.9-12.4,3.9
				c-0.5,0-0.9,0-1.3-0.1c-1.7-0.3-2.8-1.2-3.2-2.6c-0.7-2.7,1.7-6.5,6.3-10.2c7.8-6.1,16.4-5.6,28.2-4.8l0.4,0
				c6.4,0.4,12.7,3.4,16.8,5.8c4.2,2.5,7,4.8,7.5,5.2c0.7,0.3,4.6,2.3,19.1,9.3c4.1,2,7.2,5.6,8.5,10c1.3,4.4,0.6,9.1-1.8,13
				c-2.3,3.7-5.9,6.3-10.1,7.2C173.4,242,172.2,242.1,171,242.1z M159.8,236.2c0.1,0,0.3,0,0.4,0.1l3,1.9c3.3,2.1,7.3,2.8,11.1,1.9
				c3.8-0.9,7.1-3.2,9.1-6.5c2.2-3.5,2.7-7.8,1.6-11.8c-1.2-4-3.9-7.3-7.7-9c-12.1-5.9-18.6-9-19.3-9.4c0,0-0.1-0.1-0.1-0.1
				c-0.1-0.1-11.8-10-23.4-10.7l-0.4,0c-11.9-0.7-19.8-1.2-27.2,4.5c-4.9,3.9-6.2,7-5.8,8.6c0.2,0.8,0.9,1.3,1.9,1.4
				c4,0.6,10.7-2.5,12.7-3.6c1-0.6,2.9-0.6,5.4-0.5c0.9,0,1.7,0,2.2,0c0.3,0,0.6,0.1,0.7,0.4c0.1,0.3,0.1,0.6-0.1,0.9
				c-0.9,1-3.5,4-4,5.2c-0.2,0.5-0.4,0.9-0.6,1.3c-0.9,2-1.7,3.7-1.1,5.2c0.5,1.2,1.8,2.3,4.1,3.3c0.3,0.1,0.5,0.4,0.5,0.7
				c0,0.3,0.3,7.2,10.5,7.6c0.2,0,0.4,0.1,0.6,0.3c0,0.1,4.7,5.6,9.5,5.8c1.8,0.1,3.4-0.6,4.8-2c0.2-0.2,0.4-0.2,0.6-0.2
				c0.2,0,0.4,0.2,0.6,0.4c0,0,0.9,1.5,2.7,2.8c2.2,1.7,4.7,2.2,7.4,1.6C159.7,236.2,159.7,236.2,159.8,236.2z"/>
		</g>
		<g>
			<path d="M123.6,204.6c-0.2,0-0.3-0.1-0.5-0.2c-0.3-0.3-0.4-0.8-0.1-1.1c0.1-0.1,2-2.3,4.7-4.3c0.3-0.2,0.8-0.2,1.1,0.2
				c0.2,0.3,0.2,0.8-0.2,1.1c-2.5,1.8-4.4,4-4.4,4C124,204.5,123.8,204.6,123.6,204.6z"/>
		</g>
		<g>
			<path d="M122.3,220.8c-0.4,0-0.8-0.3-0.8-0.8c-0.1-6.2,7.3-13.2,11.8-17.3l0.1-0.1c0.3-0.3,0.8-0.3,1.1,0c0.3,0.3,0.3,0.8,0,1.1
				l-0.1,0.1c-4.3,4-11.4,10.6-11.3,16.1C123.1,220.5,122.7,220.8,122.3,220.8C122.3,220.8,122.3,220.8,122.3,220.8z"/>
		</g>
		<g>
			<path d="M133.5,229.2c-0.4,0-0.7-0.3-0.8-0.6c-1.7-8.6,6.6-17.4,10.2-20.9c0.3-0.3,0.8-0.3,1.1,0c0.3,0.3,0.3,0.8,0,1.1
				c-1.7,1.6-4.8,4.8-7.1,8.7c-2.4,4-3.2,7.6-2.6,10.8c0.1,0.4-0.2,0.8-0.6,0.9C133.6,229.2,133.6,229.2,133.5,229.2z"/>
		</g>
		<g>
			<path d="M145.9,228.7c-0.1,0-0.2,0-0.3-0.1c-0.4-0.2-0.6-0.6-0.4-1c0.1-0.3,3.3-7.4,6.3-9.6c0.3-0.3,0.8-0.2,1.1,0.2
				c0.3,0.3,0.2,0.8-0.2,1.1c-2.7,2-5.8,8.9-5.8,9C146.5,228.6,146.2,228.7,145.9,228.7z"/>
		</g>
		<g>
			<path d="M148.9,233.1c-0.3,0-0.6-0.2-0.7-0.4c-0.2-0.4,0-0.8,0.3-1c0.8-0.4,1.8-1.2,2.1-2.3c0.2-0.6,0.1-1.3-0.2-1.9
				c-1.1-1.9-2.9-1.5-3-1.5c-0.4,0.1-0.8-0.1-0.9-0.5c-0.1-0.4,0.1-0.8,0.5-0.9c1.1-0.3,3.4-0.2,4.7,2.2c0.5,1,0.7,2.1,0.3,3.1
				c-0.5,1.6-1.8,2.7-2.9,3.2C149.2,233.1,149.1,233.1,148.9,233.1z"/>
		</g>
	</g>
	<g>
		<circle cx="124.6" cy="108.4" r="15.6"/>
	</g>
	<g>
		<path d="M124,122.5c-9,0-16.4-7.4-16.4-16.4s7.4-16.4,16.4-16.4s16.4,7.4,16.4,16.4S133,122.5,124,122.5z M124,91.3
			c-8.2,0-14.9,6.7-14.9,14.9c0,8.2,6.7,14.9,14.9,14.9s14.9-6.7,14.9-14.9C138.8,97.9,132.2,91.3,124,91.3z"/>
	</g>
	<g>
		<path class="st1" d="M119.7,124c-0.4,0-0.7-0.2-0.8-0.6c-0.1-0.4,0.2-0.8,0.6-0.9l15.6-3.5c0.4-0.1,0.8,0.2,0.9,0.6
			c0.1,0.4-0.2,0.8-0.6,0.9l-15.6,3.5C119.8,124,119.8,124,119.7,124z"/>
	</g>
	<g>
		<path class="st0" d="M29.5,163.5c2.5,0.1,4.2,1,5.5,2.2c0.7-1.4,2.2-2.7,5.4-2.5c2.5,0.2,4.1,1.3,5.1,2.6c0.7-1.3,2.1-2.9,4.9-3.1
			c2.5-0.2,4.2,1.6,5.2,3.3c0.7-1.3,2.2-2.4,5.4-2.4c3.5,0,5.9,3.6,7.7,9.4c1.9,6.2,1.9,11.8-1.9,12.3c-3.6,0.5-6.2-2.2-7.9-5.8
			c-0.3,2.6-1.4,5.6-4.5,6c-2.6,0.3-4.9-1.7-6.6-3.9c-0.5,1.9-1.6,3.5-4.2,3.6c-2.5,0-4.5-1.7-5.9-3.7c-0.2,1.6-1.4,3.8-4,3.7
			c-6.9-0.3-9-7.4-9-7.4h-6.1C18.7,177.8,21.6,163.1,29.5,163.5z"/>
	</g>
	<g>
		<path d="M53.8,186.3c-2,0-3.9-1-5.7-3.1c-0.9,1.8-2.4,2.7-4.4,2.8c-2.1,0-3.9-0.9-5.6-2.8c-0.7,1.6-2.2,2.9-4.4,2.8
			c-3.1-0.1-5.7-1.5-7.7-4.1c-1-1.3-1.6-2.6-1.8-3.3h-5.5c-0.2,0-0.4-0.1-0.6-0.3c-0.1-0.2-0.2-0.4-0.2-0.6
			c0.1-0.6,3.1-15.3,11.6-14.9c2,0.1,3.8,0.7,5.3,1.8c0.9-1.2,2.5-2.3,5.6-2.1c2,0.1,3.7,0.8,4.9,2.1c0.9-1.2,2.5-2.4,5-2.6
			c2-0.1,3.8,0.8,5.3,2.8c1.2-1.2,3-1.9,5.4-1.8c3.6,0,6.4,3.3,8.4,10c0.9,3,2.2,8.5,0.3,11.5c-0.6,1-1.6,1.6-2.8,1.8
			c-0.3,0-0.6,0.1-0.9,0.1c-2.6,0-4.9-1.5-6.8-4.4c-0.8,2.7-2.4,4.3-4.8,4.5C54.3,186.3,54.1,186.3,53.8,186.3z M47.8,180.9
			c0.2,0,0.5,0.1,0.6,0.3c2,2.6,3.9,3.8,5.9,3.6c2.1-0.3,3.4-2,3.9-5.3c0-0.3,0.3-0.6,0.6-0.7c0.3-0.1,0.7,0.1,0.8,0.4
			c1.9,3.9,4.3,5.7,7.1,5.4c0.7-0.1,1.3-0.4,1.7-1.1c1.1-1.8,1-5.6-0.5-10.2c-1.8-5.9-4.1-8.9-7-8.9c-2.4,0-3.9,0.6-4.7,2
			c-0.1,0.2-0.4,0.4-0.7,0.4c-0.3,0-0.5-0.1-0.7-0.4c-1.3-2.1-2.8-3.1-4.5-2.9c-2,0.1-3.4,1-4.3,2.7c-0.1,0.2-0.4,0.4-0.6,0.4
			c-0.3,0-0.5-0.1-0.7-0.3c-1-1.4-2.5-2.2-4.5-2.3c-2.3-0.2-3.9,0.5-4.6,2.1c-0.1,0.2-0.3,0.4-0.5,0.4c-0.2,0-0.5,0-0.7-0.2
			c-1.3-1.2-3-1.9-5-2c-6.1-0.3-9,9.6-9.8,12.7h5.1c0.3,0,0.6,0.2,0.7,0.6c0,0,0.5,1.7,1.8,3.4c1.7,2.2,3.9,3.4,6.5,3.5
			c2.2,0.1,3.1-1.9,3.2-3.1c0-0.3,0.3-0.6,0.6-0.6c0.3-0.1,0.6,0.1,0.8,0.3c1.6,2.3,3.3,3.4,5.2,3.4c1.8,0,3-1,3.5-3
			c0.1-0.3,0.3-0.5,0.6-0.6C47.7,180.9,47.8,180.9,47.8,180.9z"/>
	</g>
	<g>
		<g>
			<rect x="19.9" y="207" class="st1" width="64.7" height="64.7"/>
		</g>
		<g>
			<circle class="st2" cx="69.2" cy="225.6" r="11.4"/>
		</g>
		<g>
			<path d="M84.6,243.5c-2.7-1.2-5.8-1.2-8.7-0.6c-4.1,0.9-7.7,3.6-11.8,4.1c-4.6,0.5-8.1-2.9-10.8-6.1c-2.9-3.3-5.7-6.4-9.9-8.2
				c-3.5-1.5-7.3-2-11-1.4c-5.1,0.8-9.6,3.9-12.5,8.1l0,32.2l64.7,0L84.6,243.5z"/>
		</g>
		<g>
			<path d="M84.6,272.4H19.9c-0.2,0-0.4-0.1-0.5-0.2c-0.1-0.1-0.2-0.3-0.2-0.5l0-64.7c0-0.2,0.1-0.4,0.2-0.5
				c0.1-0.1,0.3-0.2,0.5-0.2l64.7,0c0.4,0,0.8,0.3,0.8,0.8v64.7C85.4,272.1,85,272.4,84.6,272.4z M20.7,270.9h63.2v-63.2l-63.2,0
				L20.7,270.9z"/>
		</g>
	</g>
	<g>
		<path d="M58.9,180.5c-0.4,0-0.7-0.3-0.8-0.7c-0.7-6.1-3.2-13.5-3.3-13.6c-0.1-0.4,0.1-0.8,0.5-1c0.4-0.1,0.8,0.1,1,0.5
			c0.1,0.3,2.6,7.6,3.3,13.9C59.7,180.1,59.4,180.5,58.9,180.5C59,180.5,59,180.5,58.9,180.5z"/>
	</g>
	<g>
		<path d="M47.8,182.4c-0.4,0-0.7-0.3-0.8-0.7c-0.6-4.3-2.4-15.8-2.4-15.9c-0.1-0.4,0.2-0.8,0.6-0.9c0.4-0.1,0.8,0.2,0.9,0.6
			c0,0.1,1.8,11.6,2.4,15.9c0.1,0.4-0.2,0.8-0.7,0.9C47.9,182.4,47.9,182.4,47.8,182.4z"/>
	</g>
	<g>
		<path d="M37.8,182.2c-0.4,0-0.7-0.3-0.8-0.7c-0.6-7.2-2.7-15.6-2.7-15.7c-0.1-0.4,0.1-0.8,0.6-0.9c0.4-0.1,0.8,0.1,0.9,0.6
			c0,0.1,2.1,8.6,2.8,15.9C38.6,181.8,38.3,182.2,37.8,182.2C37.8,182.2,37.8,182.2,37.8,182.2z"/>
	</g>
	<g>
		<path d="M24.8,178.6c-0.4,0-0.7-0.3-0.8-0.7l-0.6-4.1c-0.1-0.4,0.2-0.8,0.7-0.9c0.4-0.1,0.8,0.2,0.9,0.7l0.6,4.1
			c0.1,0.4-0.2,0.8-0.7,0.9C24.8,178.6,24.8,178.6,24.8,178.6z"/>
	</g>
	<g>
		<path d="M176.5,257.9c-0.2,0-0.4-0.1-0.5-0.2c-7.9-7.4-16.7-20.2-16.8-20.3c-0.2-0.4-0.2-0.8,0.2-1.1s0.8-0.2,1.1,0.2
			c0.1,0.1,8.8,12.8,16.6,20c0.3,0.3,0.3,0.8,0,1.1C176.9,257.9,176.7,257.9,176.5,257.9z"/>
	</g>
	<g>
		<path d="M221.5,228.7c-0.1,0-0.1,0-0.2,0c-2-0.6-4-2.4-6.8-4.9c-3.2-2.9-7.5-6.9-14.1-11c-11.8-7.4-30.1-3.8-30.3-3.8
			c-0.4,0.1-0.8-0.2-0.9-0.6c-0.1-0.4,0.2-0.8,0.6-0.9c0.2,0,4.8-1,11-0.9c5.7,0,13.9,0.9,20.4,4.9c6.7,4.2,11.1,8.2,14.3,11.2
			c2.6,2.4,4.5,4.1,6.1,4.6c0.4,0.1,0.6,0.5,0.5,1C222.2,228.5,221.9,228.7,221.5,228.7z"/>
	</g>
	<g>
		<path d="M167,207.7c-0.3,0-0.6-0.2-0.7-0.5l-4.4-9.6c-0.2-0.4,0-0.8,0.4-1c0.4-0.2,0.8,0,1,0.4l4.4,9.6c0.2,0.4,0,0.8-0.4,1
			C167.2,207.7,167.1,207.7,167,207.7z"/>
	</g>
	<g>
		<path d="M120.8,153.9c-0.3,0-0.6-0.2-0.7-0.5c-0.1-0.4,0.1-0.8,0.5-1c1.1-0.3,1-1.5,1-1.6c0-0.4,0.3-0.8,0.7-0.8
			c0.4,0,0.8,0.3,0.8,0.7c0.1,0.9-0.3,2.6-2.1,3.2C120.9,153.8,120.9,153.9,120.8,153.9z"/>
	</g>
</g>
<g>
	<g>
		<path d="M325.2,264.5H419l8.8,19.6H323.7C323.7,267.3,325.2,264.5,325.2,264.5z"/>
	</g>
	<g>
		<path d="M427.8,284.9H323.7c-0.4,0-0.8-0.3-0.8-0.8c0-16.6,1.5-19.7,1.7-20c0.1-0.2,0.4-0.4,0.7-0.4H419c0.3,0,0.6,0.2,0.7,0.5
			l8.8,19.6c0.1,0.2,0.1,0.5-0.1,0.7C428.3,284.8,428,284.9,427.8,284.9z M324.4,283.4h102.2l-8.1-18.1h-92.7
			C325.4,266.5,324.5,270.8,324.4,283.4z"/>
	</g>
	<g>
		<path class="st0" d="M494.7,206.5c-5.6-20-20-44.9-20-44.9l-31.8,14l3.4,30.1c0.4,1.8-0.6,3.5-2.4,4.1c-1.8,0.6-3.7-0.3-4.4-2
			c-2.1-5.2-6.4-15.7-7.8-20c-4.3-13.4-13.4-20.1-25.9-21l-21.3-1.5l-19.1-2.1c-22.5-2.5-42.3,15.9-41.9,38.6
			c0.2,9-0.2,20.5,1.6,32.2v30.7h12.6l0,0c23.5,30.4,65.1,19.5,83.6,2.2c22.6,11.3,45,11.3,60.7-0.1
			C497.9,255.3,501.3,229.9,494.7,206.5z"/>
	</g>
	<g>
		<path d="M377.4,284.4c-1.6,0-3.1-0.1-4.6-0.2c-6.8-0.6-13.2-2.3-19-5.3c-6.2-3.2-11.7-7.8-16.3-13.6h-12.3c-0.4,0-0.8-0.3-0.8-0.8
			v-30.7c-1.5-9.3-1.5-18.3-1.5-26.3c0-2.1,0-4.1-0.1-5.9c-0.2-11.1,4.5-21.9,12.8-29.5c4-3.7,8.6-6.4,13.7-8.1
			c5.3-1.8,10.8-2.4,16.3-1.8l19,2.1l21.3,1.5c6.5,0.4,12,2.4,16.5,6c4.6,3.6,8,8.9,10.1,15.6c1.4,4.3,5.5,14.3,7.8,20
			c0.5,1.3,2.1,2,3.4,1.6c1.3-0.4,2.1-1.8,1.8-3.2c0,0,0,0,0-0.1l-3.4-30.1c0-0.3,0.1-0.7,0.5-0.8l31.8-14c0.4-0.2,0.8,0,1,0.3
			c0.1,0.2,14.5,25.2,20,45.1c3.3,11.9,4.1,24.3,2.1,35c-2.1,11.5-7.3,20.5-14.9,26c-3.9,2.9-8.4,5-13.1,6.5
			c-4.7,1.4-9.8,2.2-15.1,2.2c0,0,0,0-0.1,0c-10.4,0-21.7-2.9-32.8-8.3c-5.6,5.1-13.2,9.6-21.3,12.5
			C392.7,283,384.9,284.4,377.4,284.4z M337.9,263.7c0.2,0,0.5,0.1,0.6,0.3c8.6,11.1,20.5,17.5,34.4,18.6c19.3,1.6,38-7.2,48-16.5
			c0.2-0.2,0.6-0.3,0.9-0.1c11.3,5.6,22.4,8.4,32.6,8.4c10.2,0,19.6-2.8,27.3-8.4c14.3-10.4,19.3-34.2,12.2-59.3
			c-5-18-17.3-40.2-19.6-44.1L443.7,176l3.3,29.5c0.4,2.1-0.8,4.3-2.9,4.9c-2.1,0.7-4.5-0.4-5.3-2.5c-2.3-5.7-6.4-15.8-7.8-20.1
			c-4.1-12.7-12.6-19.6-25.2-20.5l-21.3-1.5c0,0,0,0,0,0l-19.1-2.1c-10.4-1.2-20.9,2.3-28.8,9.5c-8,7.3-12.5,17.6-12.3,28.3
			c0,1.9,0,3.9,0.1,6c0,7.9,0.1,16.9,1.5,26.1c0,0,0,0.1,0,0.1v29.9L337.9,263.7C337.8,263.7,337.9,263.7,337.9,263.7z"/>
	</g>
	<g>
		<g>
			<path class="st0" d="M466.9,148.7l12.6,20.7c5.5,8.9,2.3,20.6-6.9,25.7c-9.8,5.3-22,0.8-25.9-9.6l-5.6-14.8
				c0,0-12.2-12.3-15.3-12.9c-6.4-1.2-11.9-2.4-10.4-7.1c2-6.1,16.5-2.2,16.5-2.2s-0.8-4.2,0.7-9.6c0,0-3.5-2.8-7.5-1.9
				c-7.8,1.8-11.5,0.9-11.8-2.5c-0.5-6.3,9.9-9,23.3-8.5C447.5,126.3,463.9,128.5,466.9,148.7z"/>
		</g>
		<g>
			<path d="M463.8,198.1c-2.2,0-4.5-0.4-6.6-1.2c-5.2-1.9-9.3-6-11.2-11.1l-5.6-14.7c-4.7-4.7-12.7-12.2-14.8-12.6
				c-5.4-1-9.3-1.9-10.7-4.4c-0.6-1-0.7-2.3-0.3-3.7c0.9-2.9,4.2-4.2,9.7-3.9c2.7,0.1,5.2,0.6,6.6,1c-0.1-1.6-0.2-4.6,0.7-8.3
				c-1-0.6-3.6-2.1-6.4-1.5c-5.7,1.3-9.2,1.2-11.1-0.2c-0.9-0.7-1.5-1.7-1.6-3c-0.1-1.7,0.4-3.3,1.7-4.6c1.7-1.8,4.6-3.1,8.7-3.9
				c3.7-0.7,8.5-1,13.6-0.9c5.4,0.2,12.5,0.8,18.5,4.1c6.9,3.7,11.2,10.2,12.5,19.3l12.5,20.5c2.8,4.5,3.5,9.8,2.1,14.9
				c-1.4,5.1-4.7,9.3-9.3,11.8C470.1,197.3,467,198.1,463.8,198.1z M422.9,148c-3.2,0-6.1,0.7-6.8,2.9c-0.3,1-0.3,1.8,0.1,2.4
				c1.2,2,5.9,2.9,9.7,3.6c0.5,0.1,2.2,0.4,9.2,6.9c3.4,3.1,6.5,6.2,6.5,6.3c0.1,0.1,0.1,0.2,0.2,0.3l5.6,14.8
				c1.8,4.7,5.6,8.5,10.3,10.2c4.8,1.8,10,1.4,14.5-1.1c4.3-2.3,7.3-6.2,8.6-10.9c1.3-4.7,0.6-9.6-2-13.7l-12.6-20.7
				c-0.1-0.1-0.1-0.2-0.1-0.3c-2.7-18.8-17.2-21.7-29.6-22.2c-10.5-0.4-18.2,1.2-21.2,4.3c-1,1-1.4,2.1-1.3,3.4
				c0.1,0.8,0.4,1.5,1,1.9c1.5,1.1,4.8,1.1,9.9-0.1c4.3-1,8,2,8.1,2.1c0.2,0.2,0.3,0.5,0.3,0.8c-1.4,5.1-0.7,9.2-0.7,9.3
				c0,0.3,0,0.5-0.2,0.7c-0.2,0.2-0.5,0.2-0.7,0.2C429.7,148.7,426.2,148,422.9,148z"/>
		</g>
		<g>
			<path d="M452.4,157.3c-1.1,0-2.1-0.3-2.8-1c-1.5-1.3-2.2-3.7-2.3-7.1c0-1.9,0.4-8.6,6-12.9c0.3-0.3,0.8-0.2,1.1,0.1
				c0.3,0.3,0.2,0.8-0.1,1.1c-5.1,3.9-5.5,9.9-5.4,11.7c0,2.9,0.6,5,1.7,5.9c0.6,0.5,1.4,0.7,2.4,0.6c3.4-0.5,3.8-6.4,3.8-6.5
				c0-0.3,0.2-0.6,0.5-0.7c0.3-0.1,0.6-0.1,0.8,0.1l2,1.8c0.3,0.3,0.3,0.8,0.1,1.1c-0.3,0.3-0.8,0.3-1.1,0.1l-0.9-0.8
				c-0.4,2.2-1.6,5.9-4.9,6.4C452.9,157.3,452.7,157.3,452.4,157.3z"/>
		</g>
		<g>
			<path d="M445.2,157.2c-0.7,0-1.4-0.1-2.2-0.5c-3.1-1.3-4.4-4.6-4.2-10c0.3-6.9,5.2-14.2,5.4-14.6c0.2-0.4,0.7-0.4,1.1-0.2
				c0.4,0.2,0.4,0.7,0.2,1.1c0,0.1-4.9,7.3-5.2,13.8c-0.2,4.7,0.8,7.5,3.2,8.6c0.6,0.2,1.1,0.3,1.6,0.3c1.8,0,3-1.2,3.1-1.3
				c0.3-0.3,0.8-0.3,1.1,0c0.3,0.3,0.3,0.8,0,1.1C449.3,155.5,447.6,157.2,445.2,157.2z"/>
		</g>
		<g>
			<path d="M432.5,139.6c-0.1,0-0.1,0-0.2,0c-0.4-0.1-0.7-0.5-0.6-0.9c1-4.6,5.2-8.3,5.4-8.5c0.3-0.3,0.8-0.2,1.1,0.1
				c0.3,0.3,0.2,0.8-0.1,1.1c0,0-4,3.5-4.9,7.6C433.2,139.4,432.9,139.6,432.5,139.6z"/>
		</g>
		<g>
			<path d="M436.5,152.8c-0.8,0-1.6-0.1-2.4-0.5c-1.4-0.6-2.4-1.9-3-3.6c-0.1-0.4,0.1-0.8,0.5-1c0.4-0.1,0.8,0.1,1,0.5
				c0.4,1.3,1.1,2.2,2.1,2.7c2.1,0.9,4.8-0.3,4.8-0.3c0.4-0.2,0.8,0,1,0.4c0.2,0.4,0,0.8-0.4,1C440.1,152,438.4,152.8,436.5,152.8z"
				/>
		</g>
		<g>
			<path d="M442.1,167.3c-0.4,0-0.8-0.3-0.8-0.8c0-5,2.4-7.8,4.5-9.3c2.2-1.6,4.4-2,4.5-2c0.4-0.1,0.8,0.2,0.9,0.6
				c0.1,0.4-0.2,0.8-0.6,0.9c0,0-2,0.4-3.9,1.8c-2.5,1.8-3.8,4.5-3.8,8C442.9,166.9,442.5,167.3,442.1,167.3
				C442.1,167.3,442.1,167.3,442.1,167.3z"/>
		</g>
	</g>
	<g>
		<path d="M389.4,236.8c-2.5,0-4.7-0.2-6.6-0.7c-6.8-1.6-11.2-5.9-13.7-13.5c-2.2-6.8-4.5-30-4.6-31c0-0.4,0.3-0.8,0.7-0.8
			c0.4,0,0.8,0.3,0.8,0.7c0,0.2,2.4,24,4.6,30.6c2.4,7.2,6.2,11,12.6,12.5c6.8,1.6,16.4,0.3,30.4-3.9c0.4-0.1,0.8,0.1,1,0.5
			c0.1,0.4-0.1,0.8-0.5,1C403.7,235.3,395.7,236.8,389.4,236.8z"/>
	</g>
	<g>
		<path d="M419,229.7c-0.4,0-0.8-0.3-0.8-0.7l-1-31.5c0-0.4,0.3-0.8,0.7-0.8c0.4,0,0.8,0.3,0.8,0.7l1,31.5
			C419.8,229.3,419.5,229.6,419,229.7C419,229.7,419,229.7,419,229.7z"/>
	</g>
	<g>
		<ellipse transform="matrix(0.7738 -0.6334 0.6334 0.7738 2.3968 279.8917)" cx="393.1" cy="136.6" rx="19.4" ry="19.4"/>
	</g>
	<g>
		<path class="st0" d="M380.2,150.3c5.5-1.2,10.8-8.7,10.9-9.1c0.8-2.3,1.4-7.3,1.6-10c0.1-1.1,0.9-1.9,2-2
			c3.7-0.3,11.7-0.6,14.4,0.9c2,1.1,2.6,4,2.5,5.9c0,1,0.5,5.7-0.6,11.9c-1.6,9-1.8,14.6-11.3,13.7l-2,8.2l-22.3-4.3L380.2,150.3z"
			/>
	</g>
	<g>
		<path d="M398.4,167.7c-0.1,0-0.1,0-0.2,0c-0.4-0.1-0.7-0.5-0.6-0.9l1.3-5.3c0.1-0.4,0.4-0.6,0.8-0.6c3.8,0.4,6.2-0.3,7.6-2.2
			c1.4-1.9,1.9-4.9,2.5-8.7c0.1-0.7,0.2-1.4,0.4-2.1c0.9-4.9,0.7-8.8,0.6-10.7c0-0.5,0-0.9,0-1.1c0.1-1.6-0.4-4.3-2.1-5.2
			c-1.8-1-7-1.3-14-0.8c-0.7,0-1.2,0.6-1.3,1.3c-0.3,2.8-0.8,7.9-1.7,10.2c-0.1,0.4-1.7,2.5-3.6,4.5c-1.8,1.9-4.5,4.2-7.4,4.9
			l-4.6,14.8c-0.1,0.4-0.6,0.6-1,0.5c-0.4-0.1-0.6-0.6-0.5-1l4.7-15.2c0.1-0.3,0.3-0.5,0.6-0.5c4.9-1.1,10-7.9,10.4-8.6
			c0.6-1.6,1.1-5.2,1.6-9.8c0.1-1.4,1.3-2.6,2.7-2.7c4.3-0.3,12-0.6,14.8,1c2.5,1.4,3,4.8,2.9,6.6c0,0.2,0,0.5,0,1
			c0.1,1.9,0.3,6-0.7,11.1c-0.1,0.7-0.3,1.4-0.4,2.1c-0.7,4-1.2,7.2-2.8,9.3c-1.6,2.3-4.3,3.2-8.3,2.9l-1.1,4.7
			C399.1,167.4,398.8,167.7,398.4,167.7z M390.4,140.9C390.4,140.9,390.4,140.9,390.4,140.9C390.4,140.9,390.4,140.9,390.4,140.9z"
			/>
	</g>
	<g>
		<path d="M399.7,162.3c0,0-0.1,0-0.1,0c-5.1-0.7-8-2.4-8.2-2.5c-0.4-0.2-0.5-0.7-0.3-1.1c0.2-0.4,0.7-0.5,1.1-0.3
			c0,0,2.8,1.6,7.6,2.3c0.4,0.1,0.7,0.4,0.7,0.9C400.4,162.1,400.1,162.3,399.7,162.3z"/>
	</g>
	<g>
		<path d="M398.8,165.2c0,0-1.2,2.1-3.8,0.9c-2.6-1.1-3.2-6.9-3.2-6.9l7.9,2.4L398.8,165.2z"/>
	</g>
	<g>
		<g>
			
				<ellipse transform="matrix(0.8439 -0.5365 0.5365 0.8439 -15.9609 230.7207)" class="st0" cx="388.5" cy="142.8" rx="5.1" ry="5.1"/>
		</g>
		<g>
			<path d="M389.5,144.4c-0.2,0-0.4-0.1-0.6-0.3l-2-2.5c-0.3-0.3-0.2-0.8,0.1-1.1c0.3-0.3,0.8-0.2,1.1,0.1l2,2.5
				c0.3,0.3,0.2,0.8-0.1,1.1C389.8,144.4,389.6,144.4,389.5,144.4z"/>
		</g>
	</g>
	<g>
		<path d="M400.4,141.4c-0.1,0.7-0.7,1.2-1.3,1.1c-0.7-0.1-1.2-0.7-1.1-1.3c0.1-0.7,0.7-1.2,1.3-1.1
			C400,140.2,400.5,140.8,400.4,141.4z"/>
	</g>
	<g>
		<path d="M410.2,142.4c-0.1,0.7-0.7,1.2-1.3,1.1c-0.7-0.1-1.2-0.7-1.1-1.3c0.1-0.7,0.7-1.2,1.3-1.1
			C409.7,141.1,410.2,141.7,410.2,142.4z"/>
	</g>
	<g>
		<g>
			<g>
				<path class="st1" d="M409.9,297.2c4.9,3,11.2,1.5,14.2-3.3l74.2-119.7c3-4.9,1.5-11.2-3.3-14.2s-11.2-1.5-14.2,3.3L406.5,283
					C403.5,287.9,405,294.2,409.9,297.2z"/>
			</g>
			<g>
				
					<ellipse transform="matrix(0.7071 -0.7071 0.7071 0.7071 38.0882 397.2474)" class="st1" cx="498.6" cy="152.6" rx="52.7" ry="52.7"/>
			</g>
			<g>
				<path d="M498.5,206.1c-2.7,0-5.5-0.2-8.2-0.6c-7.1-1.1-13.8-3.6-19.9-7.4c-6.1-3.8-11.3-8.7-15.5-14.5c-4-5.6-6.8-11.9-8.4-18.7
					c-1.6-6.8-1.9-13.6-0.8-20.5c1.1-7.1,3.6-13.8,7.4-19.9l0.7,0.4l-0.7-0.4c3.8-6.1,8.7-11.3,14.5-15.5c5.6-4,11.9-6.8,18.7-8.4
					c6.8-1.6,13.6-1.9,20.5-0.8c7.1,1.1,13.8,3.6,19.9,7.4c6.1,3.8,11.3,8.7,15.5,14.5c4,5.6,6.8,11.9,8.4,18.7
					c1.6,6.8,1.9,13.6,0.8,20.5c-1.1,7.1-3.6,13.8-7.4,19.9c-3.8,6.1-8.7,11.3-14.5,15.5c-5.6,4-11.9,6.8-18.7,8.4
					C506.7,205.6,502.6,206.1,498.5,206.1z M498.6,100.8c-17.4,0-34.4,8.7-44.2,24.5c-7.3,11.8-9.6,25.7-6.4,39.2
					c3.2,13.5,11.4,24.9,23.2,32.2c8.3,5.2,17.7,7.8,27.2,7.8c4,0,8-0.5,12-1.4c13.5-3.2,24.9-11.4,32.2-23.2
					c15.1-24.3,7.5-56.4-16.8-71.4C517.4,103.3,508,100.8,498.6,100.8z"/>
			</g>
			<g>
				<g>
					<path class="st0" d="M456.8,162.5c-1.3-5.5-1.5-11.1-0.6-16.6c0.9-5.7,2.9-11.2,6-16.1c3.1-5,7-9.2,11.8-12.6
						c4.6-3.2,9.7-5.5,15.2-6.8c5.5-1.3,11.1-1.5,16.6-0.6c5.7,0.9,11.2,2.9,16.1,6c5,3.1,9.2,7,12.6,11.8c3.2,4.6,5.5,9.7,6.8,15.2
						c1.3,5.5,1.5,11.1,0.6,16.6c-0.9,5.7-2.9,11.2-6,16.1c-3.1,5-7,9.2-11.8,12.6c-4.6,3.2-9.7,5.5-15.2,6.8
						c-5.5,1.3-11.1,1.5-16.6,0.6c-5.7-0.9-11.2-2.9-16.1-6c-5-3.1-9.2-7-12.6-11.8C460.3,173,458,167.9,456.8,162.5z"/>
				</g>
			</g>
		</g>
	</g>
	<g>
		<g>
			<path d="M499,125.9c-14.7,0-26.6,11.9-26.6,26.6c0,14.7,11.9,26.6,26.6,26.6s26.6-11.9,26.6-26.6H499V125.9z"/>
		</g>
		<g>
			<path class="st2" d="M503,121.9v26.6h26.6C529.6,133.8,517.7,121.9,503,121.9z"/>
		</g>
	</g>
	<g>
		<g>
			<g>
				<path class="st1" d="M413,150.7c-0.2,0-0.5,0-0.7,0c-4-0.4-6.9-3.9-6.5-7.9c0.2-1.9,1.1-3.6,2.6-4.9c1.5-1.2,3.4-1.8,5.3-1.6
					c4,0.4,6.9,3.9,6.5,7.9C419.8,147.9,416.6,150.7,413,150.7z M413,137.8c-1.3,0-2.6,0.5-3.6,1.3c-1.2,1-1.9,2.3-2,3.8
					c-0.3,3.1,2,5.9,5.1,6.2c3.1,0.3,5.9-2,6.2-5.1c0.3-3.1-2-5.9-5.1-6.2C413.3,137.8,413.1,137.8,413,137.8z"/>
			</g>
			<g>
				<path class="st1" d="M398.4,149.3c-0.2,0-0.5,0-0.7,0c-4-0.4-6.9-3.9-6.5-7.9c0.2-1.9,1.1-3.6,2.6-4.9c1.5-1.2,3.4-1.8,5.3-1.6
					c1.9,0.2,3.6,1.1,4.9,2.6c1.2,1.5,1.8,3.4,1.6,5.3C405.2,146.5,402,149.3,398.4,149.3z M398.3,136.4c-1.3,0-2.6,0.5-3.6,1.3
					c-1.2,1-1.9,2.3-2,3.8c-0.3,3.1,2,5.9,5.1,6.2c3.1,0.3,5.9-2,6.2-5.1c0.1-1.5-0.3-3-1.3-4.2c-1-1.2-2.3-1.9-3.8-2
					C398.7,136.4,398.5,136.4,398.3,136.4z"/>
			</g>
		</g>
		<g>
			<path class="st1" d="M413.6,137.9C413.6,137.9,413.5,137.9,413.6,137.9l-14.7-1.4c-0.4,0-0.7-0.4-0.7-0.8c0-0.4,0.4-0.7,0.8-0.7
				l14.6,1.4c0.4,0,0.7,0.4,0.7,0.8C414.3,137.6,414,137.9,413.6,137.9z"/>
		</g>
	</g>
	<g>
		<path d="M405.8,149.6c-0.4,0-0.8-0.3-0.8-0.8l0-8.1c0-0.4,0.3-0.8,0.8-0.8c0.4,0,0.8,0.3,0.8,0.8l0,8.1
			C406.6,149.2,406.2,149.6,405.8,149.6z"/>
	</g>
	<g>
		<path d="M406,152.7c-0.3,0-0.6-0.2-0.7-0.5c-0.1-0.4,0.1-0.8,0.5-1l1.9-0.7c0.4-0.1,0.8,0.1,1,0.5s-0.1,0.8-0.5,1l-1.9,0.7
			C406.2,152.7,406.1,152.7,406,152.7z"/>
	</g>
	<g>
		<path d="M390.6,180.4c-0.1,0-0.1,0-0.2,0c-5.5-0.1-11.4-3-16.9-8.5c-4.1-4.1-6.6-8.1-6.7-8.3c-0.2-0.4-0.1-0.8,0.3-1.1
			c0.4-0.2,0.8-0.1,1.1,0.3c0,0,2.5,4,6.5,8c3.6,3.6,9.3,7.9,15.8,8c5.1,0.1,9.4-2,12.6-6.1c2.5-3.1,3.4-6.2,3.4-6.3
			c0.1-0.4,0.5-0.6,1-0.5c0.4,0.1,0.6,0.5,0.5,1c0,0.1-1,3.4-3.6,6.8C401.9,176.8,397.5,180.4,390.6,180.4z"/>
	</g>
	<g>
		<path class="st0" d="M476.1,215.3c1.2-4.5-2.2-7.9-20-11.3l1.7-3.8c0,0-14.2,0.5-19.9,8c-2.1,2.7-11.3,17-11.3,17l-12.2,5.9
			c-7.7,3.7-10.8,13.1-6.8,20.7c4.2,7.9,14.3,10.5,21.7,5.5l17-11.2c0,0,5,0.8,8.2,1.1c3.8,0.3,8.9,0.7,10.7-3.1
			c1.8-3.8-0.8-5.2-0.8-5.2s4.2,0.6,5.8-3.6c1.4-3.5-0.7-5.7-0.7-5.7s4,0.6,5.3-3.2c1.6-4.7-2.9-7.5-2.9-7.5S475.2,219,476.1,215.3z
			"/>
	</g>
	<g>
		<path d="M421,260.6c-1.3,0-2.6-0.2-3.9-0.5c-4.3-1.1-8-4-10.1-8c-2-3.9-2.4-8.3-1.1-12.4c1.4-4.1,4.3-7.5,8.2-9.4l12-5.8
			c1.1-1.7,9.3-14.3,11.2-16.9c2.5-3.3,6.7-5.7,12.5-7.1c4.3-1.1,7.8-1.2,8-1.2c0.3,0,0.5,0.1,0.7,0.3c0.1,0.2,0.2,0.5,0.1,0.7
			l-1.3,2.9c5.6,1.1,9.9,2.2,12.9,3.5c3.1,1.2,5.1,2.6,6.1,4.2c0.8,1.3,1,2.7,0.6,4.4c-0.6,2.2-2,3.4-3.3,3.9c1.5,1.5,3,4.1,2,7.3
			c-0.9,2.6-3,3.5-4.6,3.7c0.5,1.1,0.9,2.9,0,5.2c-1,2.6-3.1,3.7-4.8,4c0.6,1,0.9,2.5-0.2,4.8c-2,4.2-7.4,3.8-11.4,3.5
			c-2.7-0.2-6.8-0.8-7.9-1L429.8,258C427.2,259.7,424.1,260.6,421,260.6z M456.6,201c-3.6,0.3-13.6,1.8-18.1,7.6
			c-2,2.7-11.2,16.8-11.3,17c-0.1,0.1-0.2,0.2-0.3,0.3l-12.2,5.9c-3.5,1.7-6.2,4.7-7.4,8.5c-1.2,3.7-0.9,7.7,1,11.2
			c1.9,3.6,5.2,6.2,9.2,7.2c3.9,1,8.1,0.3,11.5-2l17-11.2c0.2-0.1,0.4-0.1,0.6-0.1c0,0,5,0.8,8.1,1.1c3.7,0.3,8.4,0.6,9.9-2.6
			c1.4-3-0.3-4-0.5-4.2c-0.3-0.2-0.5-0.6-0.4-0.9c0.1-0.4,0.5-0.6,0.8-0.5c0.1,0,3.7,0.4,5-3.1c1.2-3-0.5-4.8-0.6-4.9
			c-0.2-0.2-0.3-0.6-0.1-0.9c0.2-0.3,0.5-0.5,0.8-0.4c0.1,0,3.4,0.4,4.4-2.7c1.4-4.1-2.6-6.6-2.6-6.6c-0.3-0.2-0.4-0.5-0.3-0.9
			c0.1-0.3,0.4-0.6,0.7-0.6c0.1,0,2.8-0.1,3.6-3.2c0.3-1.3,0.2-2.3-0.4-3.2c-1.7-2.7-7.8-5-19-7.2c-0.2,0-0.4-0.2-0.5-0.4
			c-0.1-0.2-0.1-0.5,0-0.7L456.6,201z"/>
	</g>
	<g>
		<path d="M471.8,219.8c-0.1,0-0.2,0-0.3-0.1c-0.1,0-9.8-3.9-17.5-5.4c-0.4-0.1-0.7-0.5-0.6-0.9c0.1-0.4,0.5-0.7,0.9-0.6
			c7.8,1.5,17.6,5.4,17.7,5.5c0.4,0.2,0.6,0.6,0.4,1C472.4,219.6,472.1,219.8,471.8,219.8z"/>
	</g>
	<g>
		<path d="M469.4,230.5c-0.1,0-0.2,0-0.3,0c-0.1,0-10.3-3.6-18-5.3c-0.4-0.1-0.7-0.5-0.6-0.9c0.1-0.4,0.5-0.7,0.9-0.6
			c7.7,1.7,18,5.3,18.1,5.4c0.4,0.1,0.6,0.6,0.5,1C470,230.3,469.7,230.5,469.4,230.5z"/>
	</g>
	<g>
		<path d="M464.3,239.7c-0.1,0-0.2,0-0.3,0c-0.1,0-7.2-2.5-15.3-4.2c-0.4-0.1-0.7-0.5-0.6-0.9c0.1-0.4,0.5-0.7,0.9-0.6
			c8.2,1.7,15.5,4.2,15.5,4.3c0.4,0.1,0.6,0.6,0.5,1C464.9,239.5,464.6,239.7,464.3,239.7z"/>
	</g>
	<g>
		<path d="M337.9,265.3c-0.2,0-0.5-0.1-0.6-0.3c-0.1-0.2-2.7-3.8-5.6-9.5c-2.7-5.3-6.1-13.3-7.2-21.6c-0.1-0.4,0.2-0.8,0.7-0.9
			c0.4-0.1,0.8,0.2,0.9,0.7c2,15.5,12.4,30.2,12.5,30.4c0.2,0.3,0.2,0.8-0.2,1.1C338.2,265.2,338,265.3,337.9,265.3z"/>
	</g>
	<g>
		<ellipse transform="matrix(0.9925 -0.1222 0.1222 0.9925 -12.6349 51.3096)" cx="412" cy="128.7" rx="6.7" ry="6.7"/>
	</g>
	<g>
		<circle cx="398.4" cy="118.5" r="6.4"/>
	</g>
	<g>
		<circle cx="402.4" cy="129.3" r="5.1"/>
	</g>
	<g>
		<circle cx="407.1" cy="120.4" r="5.6"/>
	</g>
	<g>
		<ellipse transform="matrix(0.9871 -0.1602 0.1602 0.9871 -14.1138 63.8903)" cx="389.2" cy="119.5" rx="5.3" ry="5.3"/>
	</g>
	<g>
		<path d="M408.4,125.9c-3.5,0-6.4-2.9-6.4-6.4c0-3.5,2.9-6.4,6.4-6.4c3.5,0,6.4,2.9,6.4,6.4C414.9,123,412,125.9,408.4,125.9z
			 M408.4,114.6c-2.7,0-4.9,2.2-4.9,4.9c0,2.7,2.2,4.9,4.9,4.9c2.7,0,4.9-2.2,4.9-4.9C413.3,116.8,411.1,114.6,408.4,114.6z"/>
	</g>
</g>
</svg>
