<?xml version="1.0" encoding="utf-8"?>
<!-- Generator: Adobe Illustrator 28.1.0, SVG Export Plug-In . SVG Version: 6.00 Build 0)  -->
<svg version="1.1" id="Capa_1" xmlns="http://www.w3.org/2000/svg" xmlns:xlink="http://www.w3.org/1999/xlink" x="0px" y="0px"
	 viewBox="0 0 552 335" style="enable-background:new 0 0 552 335;" xml:space="preserve">
<g>
	<g>
		<g>
			<g>
				<path d="M178.3,87c-0.2,0-0.4-0.1-0.5-0.2l-10.7-10.7c-0.3-0.3-0.3-0.8,0-1.1c0.3-0.3,0.8-0.3,1.1,0l10.7,10.7
					c0.3,0.3,0.3,0.8,0,1.1C178.7,86.9,178.5,87,178.3,87z"/>
			</g>
		</g>
		<g>
			<g>
				<path d="M167.6,87c-0.2,0-0.4-0.1-0.5-0.2c-0.3-0.3-0.3-0.8,0-1.1L177.8,75c0.3-0.3,0.8-0.3,1.1,0c0.3,0.3,0.3,0.8,0,1.1
					l-10.7,10.7C168,86.9,167.8,87,167.6,87z"/>
			</g>
		</g>
	</g>
	<g>
		<path d="M343,149.2c-5.7,0-10.4-4.6-10.4-10.4c0-5.7,4.6-10.4,10.4-10.4c5.7,0,10.4,4.6,10.4,10.4
			C353.4,144.6,348.7,149.2,343,149.2z M343,130c-4.9,0-8.8,4-8.8,8.8c0,4.9,4,8.8,8.8,8.8c4.9,0,8.8-4,8.8-8.8
			C351.8,134,347.9,130,343,130z"/>
	</g>
</g>
</svg>
