<?xml version="1.0" encoding="utf-8"?>
<!-- Generator: Adobe Illustrator 28.1.0, SVG Export Plug-In . SVG Version: 6.00 Build 0)  -->
<svg version="1.1" id="Capa_1" xmlns="http://www.w3.org/2000/svg" xmlns:xlink="http://www.w3.org/1999/xlink" x="0px" y="0px"
	 viewBox="0 0 552 335" style="enable-background:new 0 0 552 335;" xml:space="preserve">
<style type="text/css">
	.st0{fill:#FF8C78;}
</style>
<g>
	<g>
		<path class="st0" d="M447.8,106.5c-3.9-25-14.5-48.6-32.9-66.7C397.1,22.3,373.2,11.7,348.6,9c-3.1-0.3-6.2-0.6-9.3-0.6
			C310,7.6,281.4,18,259.6,37.9c-11,10-17.4,26-33.1,29.5C208.1,71.5,194.1,56,178.8,49c-46.5-21.1-107.1,9.4-126.5,54.3
			c-1.5,3.6-2.9,7.2-3.9,10.9c-12.9,45.2,9.9,95.6,44.6,125.5c43.3,37.2,99.8,54.1,156.1,50.8c21.4-1.3,42.7-5.1,63.6-10.9
			c51.3-14.2,102.7-40.5,124.9-92.3C448.2,162.3,452,133.6,447.8,106.5z"/>
	</g>
	<g>
		
			<ellipse transform="matrix(0.4058 -0.914 0.914 0.4058 99.7488 218.9267)" class="st0" cx="218.2" cy="32.8" rx="20.4" ry="20.4"/>
	</g>
</g>
</svg>
