<?xml version="1.0" encoding="utf-8"?>
<!-- Generator: Adobe Illustrator 28.1.0, SVG Export Plug-In . SVG Version: 6.00 Build 0)  -->
<svg version="1.1" id="Capa_1" xmlns="http://www.w3.org/2000/svg" xmlns:xlink="http://www.w3.org/1999/xlink" x="0px" y="0px"
	 viewBox="0 0 552 335" style="enable-background:new 0 0 552 335;" xml:space="preserve">
<style type="text/css">
	.st0{fill:#FFFFFF;}
	.st1{fill:#783CFF;}
</style>
<g>
	<g>
		<g>
			<path class="st0" d="M334.2,334.1c0,0,1.5-36.8-15.5-48.4H202l-12.2,48.4H334.2z"/>
		</g>
		<g>
			<path d="M189.8,334.9c-0.1,0-0.1,0-0.2,0c-0.4-0.1-0.7-0.5-0.6-0.9l12.2-48.4c0.1-0.3,0.4-0.6,0.7-0.6h116.8c0.2,0,0.3,0,0.4,0.1
				c4,2.7,7.3,7,9.9,12.8c2,4.6,3.6,10,4.6,16.3c1.7,10.6,1.4,19.9,1.4,20c0,0.4-0.4,0.8-0.8,0.7c-0.4,0-0.8-0.4-0.7-0.8
				c0-0.1,0.4-9.3-1.4-19.7c-1.6-9.5-5.2-22-13.6-27.9h-116l-12,47.8C190.4,334.6,190.1,334.9,189.8,334.9z"/>
		</g>
		<g>
			<path d="M257.8,334.9C257.8,334.9,257.7,334.9,257.8,334.9c-0.5,0-0.8-0.4-0.8-0.8l1.1-19.2c0.4-6.6-2.6-12.8-7.9-16.6
				c-0.3-0.2-0.4-0.7-0.2-1.1c0.2-0.3,0.7-0.4,1.1-0.2c2.8,2,5.1,4.7,6.6,7.9c1.5,3.1,2.2,6.6,2,10.1l-1.1,19.2
				C258.5,334.6,258.2,334.9,257.8,334.9z"/>
		</g>
	</g>
	<g>
		<path d="M375.1,231.1c-12.4-22.3-28.4-64.4-64.5-74.9c-28.9-8.4-60.7-11.3-89.7-4.7c-12.7,2.9-25.2,7.9-35.3,16.2
			c-9.7,8-17.7,17.9-24.5,28.5c-1,1.6-51.6,68.6-24.6,97.7c20.4,22,57.2,3.7,65.6-8.2h117.5c23.4,24.1,53.7,23.5,65.7,3.9
			C392.8,277.1,389.3,256.6,375.1,231.1z"/>
	</g>
	<g>
		<path class="st0" d="M258.4,178.6c15.8,0,34.7-15.1,44.9-24.3c-26.7-6.8-55.3-8.7-81.6-2.9C226.6,159.4,240.3,178.6,258.4,178.6z"
			/>
	</g>
	<g>
		<path d="M369.1,51.4c-2.6-4.6-6.2-8.6-10.6-11.8c-14.5-10.5-34.5-9-49.8-1.1c-1.2,0.6-2.4,1.3-3.5,2c-7.1,4.4-13.4,10.4-16.7,18.2
			c-1.3,3-1.6,6.5-3.4,9.3c-1.7,2.6-4.3,4.4-7.2,5.5c-5.9,2.2-12.5,1.6-18.5,3.5c-8.4,2.7-16.9,8.4-19,15.7c0,0-14.5,1.4-15.4,14.4
			c-0.7,9.6,4.7,15.1,13,16.9c4.4,1,8.9,2.4,13.3,1.4l6.7,2.6c1.7,3.1,3.5,6.2,6,8.7c2.2,2.3,3.9,4.4,7.1,5c0.1,0.1,2.2-0.1,2.4-0.1
			c9.2,2.5,18.6-1.1,24.7-8.3c1.6-1.9,2.8-4.1,3.9-6.3c1.1-2.3,2.3-4.7,4.1-6.5c4.1-4,10.5-3.6,15.8-3.8c6.2-0.2,12.5-0.5,18.7-1.9
			c5.4-1.2,10.4-3.3,14.9-6.6c12.2-9,19.2-24.7,18.7-39.8C373.7,62.4,372,56.6,369.1,51.4z"/>
	</g>
	<g>
		<path d="M283.4,142.7c-2,0-4.1-0.3-6.1-0.8c-0.4-0.1-0.7-0.5-0.5-0.9c0.1-0.4,0.5-0.7,0.9-0.5c8.6,2.3,17.8-0.8,23.9-8
			c1.5-1.7,2.6-3.7,3.8-6.1l0.2-0.4c1.1-2.2,2.2-4.5,4.1-6.3c3.8-3.7,9.5-3.9,14.5-4c0.6,0,1.2,0,1.8-0.1c5.8-0.2,12.3-0.4,18.5-1.9
			c5.6-1.3,10.5-3.4,14.6-6.4c11.6-8.6,18.8-23.9,18.4-39.1c-0.2-5.9-1.8-11.8-4.7-16.8c-2.6-4.5-6.1-8.4-10.4-11.5
			c-13.9-10.1-35-10.1-50.2-0.1c-0.4,0.2-0.8,0.1-1.1-0.2c-0.2-0.4-0.1-0.8,0.2-1.1c7.5-4.9,16.7-7.7,26.1-7.7
			c9.6,0,18.7,2.7,25.8,7.9c4.5,3.2,8.1,7.3,10.8,12c3,5.3,4.7,11.4,4.9,17.6c0.2,7.6-1.4,15.4-4.6,22.5C371,97.8,366,104,360,108.5
			c-4.3,3.1-9.4,5.4-15.1,6.7c-6.4,1.4-13,1.7-18.8,1.9c-0.6,0-1.2,0-1.9,0.1c-4.7,0.1-10.1,0.2-13.4,3.6c-1.6,1.6-2.7,3.8-3.7,5.9
			l-0.2,0.4c-1.3,2.5-2.4,4.6-4,6.4c-3.1,3.7-7.1,6.5-11.5,8C288.7,142.2,286.1,142.7,283.4,142.7z"/>
	</g>
	<g>
		<path d="M161.1,305c-4.3,0-8.3-0.6-12-1.9c-5.1-1.7-9.6-4.6-13.3-8.7c-6-6.5-8.7-15.4-8-26.4c0.6-8.9,3.4-19.2,8.4-30.6
			c5.6-12.9,14-27.4,23.7-40.9c0.2-0.3,0.4-0.5,0.4-0.6c7.7-12,15.8-21.3,24.7-28.6c9.2-7.6,21.2-13.1,35.7-16.4
			c14-3.2,29.1-4.3,45.1-3.3c14.7,0.9,29.9,3.6,45,8c30.9,9,47.1,40.7,58.9,63.8c2.1,4.1,4.1,8.1,6,11.5
			c7.1,12.7,11.6,24.3,13.3,34.4c1.7,10.1,0.7,18.5-3.2,24.9c-5.1,8.3-13.4,13.5-23.6,14.6c-6.9,0.8-14.4-0.4-21.6-3.3
			c-7.7-3.1-14.9-8.1-21.4-14.8H202.4c-2.8,3.8-8.3,8.1-14.8,11.5c-7.6,3.9-15.9,6.4-23.4,6.9C163.1,304.9,162.1,305,161.1,305z
			 M254.7,148.7c-10.9,0-22.2,1-33.6,3.6c-14.2,3.2-26,8.6-35,16.1c-8.8,7.2-16.7,16.5-24.4,28.3c-0.1,0.1-0.2,0.3-0.5,0.7
			c-9.7,13.4-18,27.9-23.6,40.6c-4.9,11.3-7.7,21.4-8.2,30.1c-0.7,10.6,1.8,19.1,7.6,25.3c6.7,7.2,16.1,10.7,27.1,9.9
			c7.3-0.5,15.5-2.9,22.8-6.7c6.4-3.4,11.8-7.6,14.4-11.3c0.1-0.2,0.4-0.3,0.6-0.3h117.5c0.2,0,0.4,0.1,0.6,0.2
			c11.3,11.7,24.9,18.1,37.8,18.1c1.4,0,2.8-0.1,4.2-0.2c9.7-1.1,17.7-6,22.5-13.9c3.7-6,4.7-14,3-23.8c-1.7-9.9-6.1-21.3-13.1-33.9
			c-1.9-3.4-3.9-7.4-6.1-11.5c-11.7-22.9-27.8-54.2-58-63C295.7,152.7,276.1,148.7,254.7,148.7z"/>
	</g>
	<g>
		<path class="st0" d="M295.6,232.3c-0.4,0-0.8-0.3-0.8-0.8l0-55.6c0-0.4,0.3-0.8,0.8-0.8c0.4,0,0.8,0.3,0.8,0.8l0,55.6
			C296.3,232,296,232.3,295.6,232.3z"/>
	</g>
	<g>
		<ellipse transform="matrix(0.8921 -0.4518 0.4518 0.8921 -23.2402 127.6396)" cx="255.7" cy="112.5" rx="22.5" ry="22.5"/>
	</g>
	<g>
		<path class="st0" d="M273.3,153.5v-11.9c-13-5-10.3-25.7-10.3-25.7c-11.9,1-13.3-12-14.4-16.9c-0.2-0.7-0.8-1.3-1.6-1.3
			c-6.9-0.3-12.2,5-12.5,9.8c-1.3,16.6-5.1,33,12.6,33.2v12.8H273.3z"/>
	</g>
	<g>
		<path d="M247,150.7c-0.4,0-0.8-0.3-0.8-0.8v-8.4c-4.6-0.2-8-1.5-10.3-4c-4.7-5.2-3.8-14.5-2.8-24.5c0.2-1.8,0.3-3.7,0.5-5.6
			c0.4-5.2,6-10.9,13.3-10.5c1.1,0,2,0.8,2.3,1.9c0.1,0.5,0.2,1,0.3,1.6c0.6,2.8,1.4,6.7,3.4,9.8c2.3,3.6,5.5,5.2,9.9,4.9
			c0.2,0,0.5,0.1,0.6,0.2c0.2,0.2,0.2,0.4,0.2,0.6c0,0.1-0.6,5.2,0.3,10.8c1.2,7.4,4.4,12.1,9.6,14.1c0.3,0.1,0.5,0.4,0.5,0.7v8
			c0,0.4-0.3,0.8-0.8,0.8s-0.8-0.3-0.8-0.8v-7.5c-5.3-2.3-8.8-7.5-10-15.1c-0.7-4.5-0.5-8.5-0.4-10.3c-4.5,0.1-8-1.8-10.4-5.6
			c-2.1-3.4-3-7.6-3.6-10.4c-0.1-0.6-0.2-1.1-0.3-1.6c-0.1-0.4-0.4-0.7-0.9-0.7c-3-0.1-5.9,0.9-8.2,2.8c-2.1,1.7-3.4,4.1-3.5,6.3
			c-0.1,1.9-0.3,3.8-0.5,5.6c-0.9,9.6-1.7,18.6,2.5,23.3c2.1,2.3,5.3,3.5,9.9,3.5c0.4,0,0.8,0.3,0.8,0.8v9.1
			C247.8,150.3,247.5,150.7,247,150.7z"/>
	</g>
	<g>
		<path d="M247,141.5c-0.4,0-0.8-0.3-0.8-0.8c0-0.4,0.3-0.8,0.8-0.8c5,0,8.6-0.4,8.7-0.4c0.4,0,0.8,0.3,0.9,0.7
			c0,0.4-0.3,0.8-0.7,0.9C255.8,141.1,252.1,141.5,247,141.5z"/>
	</g>
	<g>
		<path d="M247,148.8c0,0,3.8,0.9,6.9-1.1c3.3-2.1,1.9-7.4,1.9-7.4l-8.8,0.4L247,148.8z"/>
	</g>
	<g>
		<g>
			
				<ellipse transform="matrix(0.5807 -0.8141 0.8141 0.5807 13.7191 262.6483)" class="st0" cx="261.8" cy="118" rx="6.7" ry="6.7"/>
		</g>
		<g>
			<path d="M260.7,120.1c-0.1,0-0.3,0-0.4-0.1c-0.4-0.2-0.5-0.7-0.3-1.1l2.2-3.6c0.2-0.4,0.7-0.5,1.1-0.3c0.4,0.2,0.5,0.7,0.3,1.1
				l-2.2,3.6C261.2,119.9,261,120.1,260.7,120.1z"/>
		</g>
	</g>
	<g>
		<ellipse transform="matrix(0.9239 -0.3827 0.3827 0.9239 -26.2651 100.0691)" cx="238.4" cy="116.1" rx="1.5" ry="1.5"/>
	</g>
	<g>
		<path d="M252,116.1c0,0.8-0.7,1.5-1.5,1.5c-0.8,0-1.5-0.7-1.5-1.5c0-0.8,0.7-1.5,1.5-1.5C251.4,114.6,252,115.2,252,116.1z"/>
	</g>
	<g>
		<path d="M240.7,128.6c-0.3,0-0.6,0-0.9-0.1c-0.4-0.1-0.7-0.5-0.6-0.9c0.1-0.4,0.5-0.7,0.9-0.6c1.9,0.4,2.6-1,2.7-1.1
			c0.2-0.4,0.6-0.6,1-0.4c0.4,0.2,0.6,0.6,0.4,1C243.8,127.3,242.6,128.6,240.7,128.6z"/>
	</g>
	<g>
		<g>
			<g>
				<path class="st1" d="M250.8,126.7c-4.8,0-8.7-3.9-8.7-8.7c0-4.8,3.9-8.7,8.7-8.7c4.8,0,8.7,3.9,8.7,8.7
					C259.4,122.8,255.6,126.7,250.8,126.7z M250.8,110.9c-3.9,0-7.1,3.2-7.1,7.1c0,3.9,3.2,7.1,7.1,7.1c3.9,0,7.1-3.2,7.1-7.1
					C257.9,114.1,254.7,110.9,250.8,110.9z"/>
			</g>
			<g>
				<path class="st1" d="M232.8,126.7c-4.8,0-8.7-3.9-8.7-8.7c0-4.8,3.9-8.7,8.7-8.7c4.8,0,8.7,3.9,8.7,8.7
					C241.4,122.8,237.6,126.7,232.8,126.7z M232.8,110.9c-3.9,0-7.1,3.2-7.1,7.1c0,3.9,3.2,7.1,7.1,7.1s7.1-3.2,7.1-7.1
					C239.9,114.1,236.7,110.9,232.8,110.9z"/>
			</g>
		</g>
		<g>
			<path class="st1" d="M250.8,110.9h-18c-0.4,0-0.8-0.3-0.8-0.8c0-0.4,0.3-0.8,0.8-0.8h18c0.4,0,0.8,0.3,0.8,0.8
				C251.6,110.5,251.2,110.9,250.8,110.9z"/>
		</g>
	</g>
	<g>
		<path d="M239.8,125.4c0,0-0.1,0-0.1,0c-0.4-0.1-0.7-0.5-0.6-0.9l1.7-10c0.1-0.4,0.5-0.7,0.9-0.6c0.4,0.1,0.7,0.5,0.6,0.9l-1.7,10
			C240.5,125.1,240.2,125.4,239.8,125.4z"/>
	</g>
	<g>
		<path class="st0" d="M376.6,242.2c-0.2,0-0.3-0.1-0.5-0.2c-10.8-8.3-20.5-12.2-26.8-14c-6.8-2-11-2-11.1-2c-0.4,0-0.8-0.3-0.8-0.8
			c0-0.4,0.3-0.8,0.8-0.8c0.2,0,4.5,0,11.4,2.1c6.4,1.9,16.3,5.8,27.3,14.3c0.3,0.3,0.4,0.7,0.1,1.1
			C377.1,242.1,376.9,242.2,376.6,242.2z"/>
	</g>
	<g>
		<path class="st0" d="M319.5,286.5c-0.2,0-0.5-0.1-0.6-0.3c-3.7-5-6.5-10.3-8.4-15.7c-1.5-4.3-2.4-8.7-2.7-13.1
			c-0.5-7.5,1-12.2,1.1-12.4c0.1-0.4,0.6-0.6,1-0.5c0.4,0.1,0.6,0.6,0.5,1c0,0-1.5,4.7-1,11.9c0.4,6.6,2.6,16.9,10.7,27.9
			c0.3,0.3,0.2,0.8-0.2,1.1C319.8,286.4,319.7,286.5,319.5,286.5z"/>
	</g>
	<g>
		<path class="st0" d="M180.6,207.3l-16.2,19.3c-7.6,9.1-5.8,22.8,3.9,29.7c8.9,6.4,21.3,4.5,28-4.1l17.2-22.3L180.6,207.3z"/>
	</g>
	<g>
		<path d="M180.1,260.9c-4.4,0-8.7-1.4-12.3-3.9c-4.9-3.5-8-8.6-8.7-14.5c-0.8-5.9,0.9-11.7,4.7-16.3l16.2-19.3
			c0.3-0.3,0.7-0.4,1-0.1l33,22.6c0.2,0.1,0.3,0.3,0.3,0.5c0,0.2,0,0.4-0.2,0.6L197,252.6c-3.4,4.4-8.2,7.2-13.7,8
			C182.2,260.8,181.2,260.9,180.1,260.9z M180.7,208.3L165,227.1c-3.5,4.3-5.1,9.6-4.4,15.1c0.7,5.5,3.6,10.3,8.1,13.5
			c3.5,2.5,7.5,3.7,11.4,3.7c5.9,0,11.7-2.6,15.5-7.6l16.7-21.6L180.7,208.3z"/>
	</g>
	<g>
		<g>
			<g>
				<path class="st0" d="M224.7,249.4h52.9c17.5,0,31.7-14.2,31.7-31.7v-13c0-17.5-14.2-31.7-31.7-31.7h-52.9
					c-17.5,0-31.7,14.2-31.7,31.7v13C193,235.2,207.2,249.4,224.7,249.4z"/>
			</g>
			<g>
				<path d="M304.9,250.1H197.3c-2.8,0-5.1-2.3-5.1-5.1v-67.8c0-2.8,2.3-5.1,5.1-5.1h107.6c2.8,0,5.1,2.3,5.1,5.1V245
					C310,247.8,307.7,250.1,304.9,250.1z M197.3,173.7c-2,0-3.6,1.6-3.6,3.6V245c0,2,1.6,3.6,3.6,3.6h107.6c2,0,3.6-1.6,3.6-3.6
					v-67.8c0-2-1.6-3.6-3.6-3.6H197.3z"/>
			</g>
			<g>
				<circle class="st1" cx="251.1" cy="211.1" r="9.3"/>
			</g>
		</g>
		<g>
			<g>
				<path class="st0" d="M219.6,207.3c0.1-5.8-6.7-8.1-13-8.6c5.4-0.9,12.8-2.2,12.6-8.4c-0.2-5.5-7.1-7.6-13.1-7.5
					c5.2-1.6,10.7-4.6,9.9-9.7c-1.5-9.2-20.8-5-27.3-2.5c-12.8,5-8.6,14.8-8.6,14.8s-3.2,2.2-2.9,7.2c0.3,5.2,4.5,7,4.5,7
					s-4.3,2.1-4.3,7.5c0,6.4,4.3,8.7,4.3,8.7s-4,2.3-3.7,7.6c0.3,6.3,9.2,12.1,14.8,13.2l0.1-5.5c0,0,20.2,0.1,20.9-9.4
					c0.3-3.3-1.8-5-4.6-6C214.6,214.6,219.5,212.5,219.6,207.3z"/>
			</g>
			<g>
				<path d="M193,237.6c0,0-0.1,0-0.1,0c-3.1-0.6-6.8-2.4-9.8-4.8c-3.5-2.8-5.6-6.1-5.7-9.1c-0.2-4.1,1.9-6.5,3.2-7.6
					c-1.4-1.1-3.8-3.8-3.8-8.7c0-4.1,2.2-6.4,3.6-7.5c-1.4-1-3.6-3.1-3.8-7c-0.3-4.3,1.8-6.7,2.7-7.5c-0.4-1.2-1.1-4.3,0.3-7.7
					c1.4-3.3,4.4-5.8,8.9-7.6c5.2-2,18.7-5.2,25-1.6c1.9,1.1,3,2.6,3.3,4.7c0.6,3.7-1.8,6.9-6.9,9.2c5.4,0.7,10,3.2,10.2,8
					c0.1,3-1.5,5.4-4.7,6.9c-1.3,0.6-2.7,1.1-4.1,1.4c1.6,0.4,3.2,0.9,4.6,1.7c3,1.6,4.5,4.1,4.5,7c0,2.6-1.2,4.8-3.5,6.4
					c-1.3,0.9-3,1.7-5.2,2.4c2.8,1.6,3.2,4,3.1,5.9c-0.7,9.1-17.1,10-20.9,10.1l-0.1,4.7c0,0.2-0.1,0.4-0.3,0.6
					C193.3,237.5,193.2,237.6,193,237.6z M205.5,168.3c-5.8,0-12.8,1.7-16.5,3.2c-4.1,1.6-6.8,3.9-8,6.7c-1.5,3.6-0.1,7-0.1,7.1
					c0.1,0.3,0,0.7-0.3,0.9c-0.1,0.1-2.8,2.1-2.5,6.6c0.3,4.6,3.9,6.3,4,6.4c0.3,0.1,0.5,0.4,0.5,0.7c0,0.3-0.2,0.6-0.4,0.7
					c-0.2,0.1-3.8,2-3.8,6.8c0,5.9,3.8,8,3.9,8c0.2,0.1,0.4,0.4,0.4,0.7c0,0.3-0.1,0.5-0.4,0.7c-0.1,0.1-3.6,2.1-3.3,6.9
					c0.3,5.4,7.8,10.8,13.3,12.3l0.1-4.5c0-0.4,0.3-0.8,0.8-0.8c0.3,0,19.5-0.1,20.1-8.7c0.2-2.5-1.1-4.2-4.1-5.2
					c-0.3-0.1-0.5-0.4-0.5-0.8c0-0.3,0.3-0.6,0.6-0.7c6.6-1.6,9.6-4.1,9.6-7.8c0-2.4-1.2-4.3-3.7-5.6c-2.7-1.5-6.1-2-8.5-2.2
					c-0.4,0-0.7-0.3-0.7-0.7c0-0.4,0.3-0.7,0.6-0.8c6.4-1.1,12.2-2.4,12-7.6c-0.1-2.2-1.4-3.9-3.9-5.1c-2.2-1-5.3-1.6-8.4-1.6
					c-0.4,0-0.7-0.3-0.8-0.6c-0.1-0.4,0.2-0.7,0.5-0.9c4.7-1.5,10.1-4.2,9.3-8.8c-0.3-1.6-1.1-2.7-2.6-3.6
					C210.9,168.7,208.4,168.3,205.5,168.3z"/>
			</g>
			<g>
				<path d="M180.2,186.3c-0.4,0-0.7-0.3-0.8-0.7c0-0.4,0.3-0.8,0.7-0.8l26-2.7c0.4,0,0.8,0.3,0.8,0.7c0,0.4-0.3,0.8-0.7,0.8
					L180.2,186.3C180.2,186.3,180.2,186.3,180.2,186.3z"/>
			</g>
			<g>
				<path d="M181.8,200.6c-0.4,0-0.8-0.3-0.8-0.7c0-0.4,0.3-0.8,0.7-0.8l24.9-1.1c0.4,0,0.8,0.3,0.8,0.7s-0.3,0.8-0.7,0.8
					L181.8,200.6C181.8,200.6,181.8,200.6,181.8,200.6z"/>
			</g>
			<g>
				<path d="M181.9,216.8c-0.4,0-0.8-0.3-0.8-0.8c0-0.4,0.3-0.8,0.8-0.8l27.5-0.2c0.4,0,0.8,0.3,0.8,0.8c0,0.4-0.3,0.8-0.8,0.8
					L181.9,216.8C181.9,216.8,181.9,216.8,181.9,216.8z"/>
			</g>
		</g>
	</g>
	<g>
		<path class="st0" d="M202,286.5c-0.1,0-0.2,0-0.4-0.1c-0.4-0.2-0.5-0.7-0.3-1c6.9-13,8.4-25.6,8.4-33.9c0-9-1.6-15-1.7-15.1
			c-0.1-0.4,0.1-0.8,0.5-0.9c0.4-0.1,0.8,0.1,0.9,0.5c0.1,0.3,1.7,6.2,1.7,15.4c0,5.4-0.6,10.8-1.7,16c-1.4,6.5-3.7,12.8-6.9,18.7
			C202.5,286.3,202.2,286.5,202,286.5z"/>
	</g>
	<g>
		<path class="st0" d="M141.7,238.5c-0.1,0-0.3,0-0.4-0.1c-0.4-0.2-0.5-0.7-0.2-1.1c4.6-7.1,12.6-12.3,18.6-15.3
			c6.4-3.3,11.9-5,11.9-5c0.4-0.1,0.8,0.1,1,0.5c0.1,0.4-0.1,0.8-0.5,1c-0.1,0-5.4,1.6-11.7,4.9c-5.8,3-13.6,7.9-18,14.8
			C142.2,238.4,142,238.5,141.7,238.5z"/>
	</g>
	<g>
		<path d="M193.1,232.1h-4.5c-0.4,0-0.8-0.3-0.8-0.8c0-0.4,0.3-0.8,0.8-0.8h4.5c0.4,0,0.8,0.3,0.8,0.8
			C193.8,231.8,193.5,232.1,193.1,232.1z"/>
	</g>
	<g>
		<path class="st0" d="M334.2,215.1c0,0-8.7-28-16-36.7c-7.2-8.8-22-14.4-30.2-14.3c-8.3,0.1-11.7,1.7-12,6.2
			c-0.4,5.3,5.5,7.5,12,7.7c6.5,0.2,13.9,4.3,13.9,4.3s-18.3-0.3-24.4,0.9c-4.6,0.9-7.3,4.5-6.9,7.4c0.5,3.9,3.1,7.3,11.8,7.4
			c-5.4,0.9-9.6,2.4-9.3,7.7c0.3,6.3,6.2,6.9,11.7,6.7c-5.5,0.9-7.7,4-7.2,7.4c0.9,5.9,10.9,7.5,20,6.6c-0.6,6.1,1.9,11.7,9.4,12.3
			l1.6,4c5.1,12.9,21.9,16.2,31.5,6.1c6.5-6.9,7-17.5,1.1-25L334.2,215.1z"/>
	</g>
	<g>
		<path d="M326.2,255.5c-1.3,0-2.5-0.1-3.8-0.4c-6.7-1.3-12.2-5.8-14.7-12.1l-1.4-3.5c-3.1-0.3-5.6-1.5-7.2-3.6
			c-1.8-2.2-2.7-5.1-2.5-8.6c-4.6,0.3-9,0-12.4-0.9c-4.4-1.2-7-3.4-7.5-6.5c-0.3-2,0.2-3.8,1.5-5.3c0.5-0.6,1.2-1.1,2-1.6
			c-1.3-0.1-2.5-0.4-3.6-0.9c-2.7-1.2-4.2-3.3-4.4-6.5c-0.2-4.3,2.2-6.3,5.4-7.4c-1.9-0.4-3.5-1-4.8-2c-1.8-1.3-2.8-3.2-3.1-5.7
			c-0.4-3.2,2.4-7.3,7.5-8.2c4.6-0.9,15.6-1,21.2-0.9c-2.7-1.2-6.8-2.6-10.5-2.8c-3-0.1-8.4-0.7-11.2-3.8c-1.2-1.3-1.7-2.9-1.6-4.8
			c0.2-2.5,1.3-4.3,3.5-5.3c2-1,4.9-1.5,9.3-1.5c8.8-0.1,23.6,5.8,30.8,14.5c7.1,8.5,15.3,34.5,16.1,36.9l6.9,8.7
			c3,3.7,4.5,8.4,4.3,13.2c-0.2,4.8-2.1,9.3-5.4,12.8C336.8,253.3,331.6,255.5,326.2,255.5z M297.5,225.6c0.2,0,0.4,0.1,0.5,0.2
			c0.2,0.2,0.2,0.4,0.2,0.6c-0.2,2.4-0.1,5.9,2.1,8.4c1.5,1.8,3.8,2.8,6.7,3.1c0.3,0,0.5,0.2,0.7,0.5l1.6,4
			c2.3,5.8,7.4,10,13.5,11.2c6.2,1.2,12.4-0.8,16.7-5.4c6.2-6.6,6.7-16.9,1.1-23.9l-6.9-8.8c-0.1-0.1-0.1-0.2-0.1-0.2
			c-0.1-0.3-8.8-27.9-15.8-36.5c-6.7-8.2-21.2-14.1-29.6-14c-9.1,0.1-11,2.1-11.3,5.5c-0.1,1.4,0.3,2.6,1.2,3.6
			c1.7,1.9,5.4,3.1,10.1,3.3c6.6,0.2,13.9,4.2,14.2,4.4c0.3,0.2,0.5,0.5,0.4,0.9c-0.1,0.3-0.4,0.6-0.8,0.6c-0.2,0-18.3-0.2-24.3,0.9
			c-4.2,0.8-6.6,4-6.3,6.5c0.4,2.9,1.9,6.6,11.1,6.7c0.4,0,0.7,0.3,0.8,0.7c0,0.4-0.2,0.8-0.6,0.8c-5.7,1-8.9,2.4-8.7,6.9
			c0.2,4.5,3.5,6.3,10.9,6c0.4,0,0.8,0.3,0.8,0.7c0,0.4-0.2,0.8-0.6,0.8c-4.7,0.8-7,3.1-6.5,6.5
			C279.1,224.9,288.8,226.4,297.5,225.6C297.4,225.6,297.5,225.6,297.5,225.6z"/>
	</g>
	<g>
		<path d="M307.9,198.7c0,0-0.1,0-0.1,0c-10-1.5-25.2,0-25.3,0c-0.4,0-0.8-0.3-0.8-0.7c0-0.4,0.3-0.8,0.7-0.8c0.2,0,15.5-1.5,25.7,0
			c0.4,0.1,0.7,0.5,0.6,0.9C308.6,198.5,308.2,198.7,307.9,198.7z"/>
	</g>
	<g>
		<path d="M309.1,213.2C309.1,213.2,309.1,213.2,309.1,213.2c-0.2,0-17.4-0.9-24.4,0c-0.4,0.1-0.8-0.3-0.9-0.7
			c-0.1-0.4,0.3-0.8,0.7-0.9c7.1-0.9,23.9,0,24.6,0c0.4,0,0.8,0.4,0.7,0.8C309.9,212.9,309.6,213.2,309.1,213.2z"/>
	</g>
	<g>
		<path d="M309.1,183.8C309.1,183.8,309.1,183.8,309.1,183.8c-1.8-0.2-7.3-0.7-7.4-0.7c-0.4,0-0.7-0.4-0.7-0.8
			c0-0.4,0.4-0.7,0.8-0.7c0.2,0,5.6,0.5,7.3,0.7c0.4,0,0.7,0.4,0.7,0.9C309.9,183.5,309.5,183.8,309.1,183.8z"/>
	</g>
</g>
</svg>
