<?xml version="1.0" encoding="UTF-8"?>
<svg id="Layer_1" xmlns="http://www.w3.org/2000/svg" version="1.1" viewBox="0 0 24 24">
  <!-- Generator: Adobe Illustrator 29.1.0, SVG Export Plug-In . SVG Version: 2.1.0 Build 142)  -->
  <defs>
    <style>
      .st0 {
        fill: #00c864;
      }
    </style>
  </defs>
  <path class="st0" d="M22,10.5v9c0,2.5-2,4.5-4.5,4.5H4.5c-2.5,0-4.5-2-4.5-4.5V6.5C0,4,2,2,4.5,2h9c.3,0,.5.2.5.5s-.2.5-.5.5H4.5c-1.9,0-3.5,1.6-3.5,3.5v13c0,1.9,1.6,3.5,3.5,3.5h13c1.9,0,3.5-1.6,3.5-3.5v-9c0-.3.2-.5.5-.5s.5.2.5.5ZM24,4c0,2.2-1.8,4-4,4s-4-1.8-4-4,1.8-4,4-4,4,1.8,4,4ZM23,4c0-1.7-1.3-3-3-3s-3,1.3-3,3,1.3,3,3,3,3-1.3,3-3Z"/>
  <path class="st0" d="M11.2,13h-1.2c-.6,0-1,.4-1,1v5.5c0,.3.2.5.5.5s.5-.2.5-.5v-2h1.2c1.2,0,2.2-1,2.2-2.2s-1-2.2-2.2-2.2ZM11.2,16.5h-1.2v-2.5h1.2c.7,0,1.2.6,1.2,1.2s-.6,1.2-1.2,1.2Z"/>
  <path class="st0" d="M16.8,13h-1.2c-.6,0-1,.4-1,1v5.5c0,.3.2.5.5.5s.5-.2.5-.5v-2h1.2c1.2,0,2.2-1,2.2-2.2s-1-2.2-2.2-2.2ZM16.8,16.5h-1.2v-2.5h1.2c.7,0,1.2.6,1.2,1.2s-.6,1.2-1.2,1.2Z"/>
  <path class="st0" d="M7.2,14.5h0c-.1-.8-.8-1.5-1.7-1.5s-1.5.9-1.6,1.5l-1,4.9c-.1.6.9.8,1,.2l.2-1.1h2.9l.2,1.1c0,.3.3.4.6.4.3,0,.4-.3.4-.6l-.9-4.9ZM4.3,17.5l.6-2.8c0-.2.3-.7.7-.7s.6.5.7.7l.5,2.8h-2.5Z"/>
</svg>