<?xml version="1.0" encoding="UTF-8"?>
<svg id="Layer_1" xmlns="http://www.w3.org/2000/svg" version="1.1" viewBox="0 0 24 24">
  <!-- Generator: Adobe Illustrator 29.1.0, SVG Export Plug-In . SVG Version: 2.1.0 Build 142)  -->
  <defs>
    <style>
      .st0 {
        fill: #00c864;
      }
    </style>
  </defs>
  <path class="st0" d="M19,11.5v7c0,.3-.2.5-.5.5s-.5-.2-.5-.5v-7c0-.3.2-.5.5-.5s.5.2.5.5Z"/>
  <path class="st0" d="M23.5,9c-.3,0-.5.2-.5.5v10c0,1.9-1.6,3.5-3.5,3.5H4.5c-1.9,0-3.5-1.6-3.5-3.5V4.5c0-1.9,1.6-3.5,3.5-3.5h10c.3,0,.5-.2.5-.5s-.2-.5-.5-.5H4.5C2,0,0,2,0,4.5v15c0,2.5,2,4.5,4.5,4.5h15c2.5,0,4.5-2,4.5-4.5v-10c0-.3-.2-.5-.5-.5Z"/>
  <path class="st0" d="M23.7,4.3l-2.8-1.1-1.1-2.8c-.2-.4-.8-.4-.9,0l-1.1,2.8-2.8,1.1h0c-.2,0-.3.3-.3.5,0,.2.1.4.3.5l2.8,1.2,1.1,2.8c0,.2.3.3.5.3s.4-.1.5-.3l1.1-2.8,2.8-1.1c.2,0,.3-.3.3-.5s-.1-.4-.3-.5ZM20.3,5.5c-.1,0-.2.2-.3.3l-.8,1.9-.8-1.9c0-.1-.1-.2-.3-.3l-1.9-.8h0s1.9-.7,1.9-.7c.1,0,.2-.2.3-.3l.8-1.9.8,1.9c0,.1.2.2.3.3l1.9.8-1.9.8Z"/>
  <path class="st0" d="M15,18.4l-3.8-12.1h0c-.2-.8-.9-1.2-1.7-1.2s-1.5.5-1.7,1.2l-3.8,12.1c0,.3,0,.5.3.6.3,0,.5,0,.6-.3l1.1-3.6h6.8l1.1,3.6c0,.2.3.4.5.4s0,0,.1,0c.3,0,.4-.4.3-.6ZM6.4,14l2.3-7.5c.1-.4.5-.5.7-.5s.6.1.7.5l2.3,7.5h-6.1Z"/>
</svg>