<?xml version="1.0" encoding="utf-8"?>
<!-- Generator: Adobe Illustrator 28.1.0, SVG Export Plug-In . SVG Version: 6.00 Build 0)  -->
<svg version="1.1" id="Capa_1" xmlns="http://www.w3.org/2000/svg" xmlns:xlink="http://www.w3.org/1999/xlink" x="0px" y="0px"
	 viewBox="0 0 166 30" style="enable-background:new 0 0 166 30;" xml:space="preserve">
<style type="text/css">
	.st0{opacity:0.3;enable-background:new    ;}
</style>
<path d="M5.5,22L0.3,8H4l2.1,6.6c0.3,0.9,0.5,1.7,0.6,2.5c0.1,0.6,0.2,1.5,0.2,2.8h1.4c0-1.2,0.1-2.2,0.2-2.9
	c0.1-0.7,0.3-1.4,0.6-2.4L11,8h3.5L9.6,22H5.5L5.5,22z"/>
<path d="M15.8,15c0-2.2,0.7-3.9,2-5.3s3-2.1,5.1-2.1s3.8,0.7,5.1,2.1s2,3.2,2,5.3s-0.7,4-2,5.4s-3,2.1-5.1,2.1s-3.7-0.7-5-2.1
	C16.5,18.9,15.8,17.1,15.8,15L15.8,15z M26.4,15.1c0-1.5-0.3-2.7-1-3.5s-1.5-1.2-2.5-1.2c-1.1,0-1.9,0.4-2.6,1.2
	c-0.6,0.8-0.9,2-0.9,3.5s0.3,2.6,0.9,3.4s1.5,1.2,2.6,1.2s1.9-0.4,2.6-1.2C26.1,17.7,26.4,16.5,26.4,15.1z"/>
<path d="M33.1,22V8h3.2c0,1.3-0.4,2.7-1.3,4.1h1.6c0.3-1.5,0.8-2.6,1.6-3.3c0.7-0.7,1.8-1.1,3.1-1.1c0.4,0,0.7,0,1,0.1v3.5
	c-0.4-0.1-0.9-0.1-1.5-0.1c-1.5,0-2.6,0.4-3.3,1.2s-1,2.1-1,3.8V22H33.1L33.1,22z"/>
<path d="M46.2,18.4v-7.8h-3V8h3V3.6h3.4V8h3.7v2.7h-3.7v7.2c0,0.9,0.4,1.3,1.3,1.3h3V22h-4.2c-1.1,0-2-0.3-2.6-0.9
	C46.6,20.4,46.2,19.5,46.2,18.4L46.2,18.4z"/>
<path d="M55.4,15c0-2.2,0.6-4,1.9-5.4s2.9-2.1,4.9-2.1s3.6,0.7,4.8,2c1.2,1.3,1.8,3.1,1.8,5.2c0,0.3,0,0.7-0.1,1.1h-9.9
	c0.1,1.3,0.4,2.3,1,2.9s1.4,1,2.5,1c1.5,0,2.7-0.8,3.4-2.5l3.1,1.1c-1.1,2.7-3.3,4.1-6.5,4.1c-2.1,0-3.7-0.7-5-2S55.4,17.3,55.4,15
	L55.4,15z M58.9,13.3h6.4c-0.1-1-0.4-1.8-0.9-2.3c-0.6-0.6-1.3-0.8-2.2-0.8S60.6,10.5,60,11C59.4,11.5,59,12.3,58.9,13.3z"/>
<path d="M69.5,22l5.1-7.2L69.8,8h4.1L75,9.6c0.7,1,1,2.3,1,4h1.3c0-1.3,0.5-2.6,1.4-4L79.8,8h3.7l-4.9,6.8l5.3,7.2h-4.2l-1.3-1.9
	c-0.7-1-1-2.3-1-4H76c0,1.2-0.5,2.5-1.5,3.9l-1.3,2H69.5L69.5,22z"/>
<path class="st0" d="M84.7,18.4l3.2-1c0.3,1.6,1.5,2.5,3.4,2.5c0.8,0,1.4-0.1,1.8-0.4s0.7-0.7,0.7-1.2c0-0.4-0.2-0.8-0.5-1.1
	c-0.3-0.3-0.9-0.5-1.6-0.6l-1.9-0.3c-1.5-0.3-2.7-0.8-3.4-1.4c-0.7-0.6-1.1-1.5-1.1-2.8s0.5-2.3,1.6-3.1C88,8.2,89.3,7.8,91,7.8
	c1.6,0,2.8,0.3,3.8,1s1.7,1.4,2,2.4l-2.9,1.2c-0.5-1.4-1.5-2.1-3.1-2.1c-0.7,0-1.3,0.2-1.7,0.4c-0.4,0.3-0.6,0.7-0.6,1.1
	c0,0.4,0.1,0.7,0.4,1c0.3,0.2,0.9,0.4,1.7,0.6l1.8,0.3c1.3,0.2,2.4,0.7,3.4,1.4c0.9,0.7,1.4,1.7,1.4,2.9c0,1.4-0.5,2.5-1.7,3.3
	c-1.1,0.8-2.6,1.2-4.5,1.2c-1.6,0-3-0.4-4.2-1.1C85.7,20.6,85,19.6,84.7,18.4L84.7,18.4z"/>
<path class="st0" d="M101.3,18.4v-7.8h-3V8h3V3.6h3.4V8h3.7v2.7h-3.7v7.2c0,0.9,0.4,1.3,1.3,1.3h3V22h-4.2c-1.1,0-2-0.3-2.6-0.9
	C101.6,20.4,101.3,19.5,101.3,18.4L101.3,18.4z"/>
<path class="st0" d="M111.5,17.3V8h3.4v8.5c0,2,0.8,3,2.4,3c1.2,0,2-0.5,2.5-1.4s0.7-2.1,0.7-3.5V8h3.4v14h-3.2c0-0.9,0.4-2,1.3-3.2
	h-1.6c-0.9,2.4-2.3,3.6-4.4,3.6c-1.4,0-2.5-0.5-3.3-1.4S111.5,18.9,111.5,17.3L111.5,17.3z"/>
<path class="st0" d="M127.2,15c0-2.2,0.5-4,1.6-5.3c1.1-1.4,2.5-2,4.1-2c2.2,0,3.7,1.1,4.6,3.3h1.6c-0.5-0.8-0.9-1.5-1.1-2.3
	c-0.2-0.8-0.4-1.9-0.4-3.3v-3h3.4V22h-3.1c0-0.8,0.4-1.7,1.2-2.9h-1.6c-0.5,1-1.1,1.9-1.7,2.5c-0.7,0.6-1.6,0.9-2.9,0.9
	c-1.7,0-3.1-0.7-4.1-2.1C127.7,19,127.2,17.2,127.2,15L127.2,15z M137.8,15c0-1.5-0.3-2.7-1-3.5s-1.5-1.2-2.6-1.2
	c-2.3,0-3.5,1.6-3.5,4.7s1.2,4.7,3.5,4.7c1.1,0,1.9-0.4,2.6-1.2C137.5,17.7,137.8,16.5,137.8,15z"/>
<path class="st0" d="M145.1,5.8V2.3h3.7v3.5H145.1z M145.2,22V8h3.4v14H145.2z"/>
<path class="st0" d="M151.8,15c0-2.2,0.7-3.9,2-5.3s3-2.1,5.1-2.1s3.8,0.7,5.1,2.1s2,3.2,2,5.3s-0.7,4-2,5.4s-3,2.1-5.1,2.1
	s-3.7-0.7-5-2.1C152.5,18.9,151.8,17.1,151.8,15L151.8,15z M162.4,15.1c0-1.5-0.3-2.7-1-3.5c-0.6-0.8-1.5-1.2-2.5-1.2
	c-1.1,0-1.9,0.4-2.6,1.2c-0.6,0.8-0.9,2-0.9,3.5s0.3,2.6,0.9,3.4c0.6,0.8,1.5,1.2,2.6,1.2s1.9-0.4,2.6-1.2
	C162.1,17.7,162.4,16.5,162.4,15.1z"/>
</svg>
