<?xml version="1.0" encoding="utf-8"?>
<!-- Generator: Adobe Illustrator 28.1.0, SVG Export Plug-In . SVG Version: 6.00 Build 0)  -->
<svg version="1.1" id="Capa_1" xmlns="http://www.w3.org/2000/svg" xmlns:xlink="http://www.w3.org/1999/xlink" x="0px" y="0px"
	 viewBox="0 0 206 30" style="enable-background:new 0 0 206 30;" xml:space="preserve">
<style type="text/css">
	.st0{fill:#FFFFFF;}
	.st1{opacity:0.3;fill:#FFFFFF;enable-background:new    ;}
	.st2{fill:url(#SVGID_1_);}
	.st3{fill:url(#SVGID_00000101809879729795055700000014901152898728363150_);}
	.st4{fill:url(#SVGID_00000110434032235345690290000001460675673202889901_);}
</style>
<path class="st0" d="M45.5,22L40.3,8H44l2.1,6.6c0.3,0.9,0.5,1.7,0.6,2.5c0.1,0.6,0.2,1.5,0.2,2.8h1.4c0-1.2,0.1-2.2,0.2-2.9
	c0.1-0.7,0.3-1.4,0.6-2.4L51,8h3.5l-4.9,14L45.5,22L45.5,22z"/>
<path class="st0" d="M55.8,15c0-2.2,0.7-3.9,2-5.3c1.3-1.4,3-2.1,5.1-2.1c2.1,0,3.8,0.7,5.1,2.1c1.3,1.4,2,3.2,2,5.3s-0.7,4-2,5.4
	c-1.3,1.4-3,2.1-5.1,2.1s-3.7-0.7-5-2.1C56.5,18.9,55.8,17.1,55.8,15L55.8,15z M66.4,15.1c0-1.5-0.3-2.7-1-3.5
	c-0.7-0.8-1.5-1.2-2.5-1.2c-1.1,0-1.9,0.4-2.6,1.2c-0.6,0.8-0.9,2-0.9,3.5s0.3,2.6,0.9,3.4c0.6,0.8,1.5,1.2,2.6,1.2
	c1.1,0,1.9-0.4,2.6-1.2C66.1,17.7,66.4,16.5,66.4,15.1z"/>
<path class="st0" d="M73.1,22V8h3.2c0,1.3-0.4,2.7-1.3,4.1h1.6c0.3-1.5,0.8-2.6,1.6-3.3c0.7-0.7,1.8-1.1,3.1-1.1c0.4,0,0.7,0,1,0.1
	v3.5c-0.4-0.1-0.9-0.1-1.5-0.1c-1.5,0-2.6,0.4-3.3,1.2c-0.7,0.8-1,2.1-1,3.8V22L73.1,22L73.1,22z"/>
<path class="st0" d="M86.2,18.4v-7.8h-3V8h3V3.6h3.4V8h3.7v2.7h-3.7v7.2c0,0.9,0.4,1.3,1.3,1.3h3V22h-4.2c-1.1,0-2-0.3-2.6-0.9
	C86.6,20.4,86.2,19.5,86.2,18.4L86.2,18.4z"/>
<path class="st0" d="M95.4,15c0-2.2,0.6-4,1.9-5.4c1.3-1.4,2.9-2.1,4.9-2.1c2,0,3.6,0.7,4.8,2c1.2,1.3,1.8,3.1,1.8,5.2
	c0,0.3,0,0.7-0.1,1.1h-9.9c0.1,1.3,0.4,2.3,1,2.9c0.6,0.6,1.4,1,2.5,1c1.5,0,2.7-0.8,3.4-2.5l3.1,1.1c-1.1,2.7-3.3,4.1-6.5,4.1
	c-2.1,0-3.7-0.7-5-2S95.4,17.3,95.4,15L95.4,15z M98.9,13.3h6.4c-0.1-1-0.4-1.8-0.9-2.3c-0.6-0.6-1.3-0.8-2.2-0.8
	c-0.9,0-1.6,0.3-2.2,0.8C99.4,11.5,99,12.3,98.9,13.3z"/>
<path class="st0" d="M109.5,22l5.1-7.2L109.8,8h4.1l1.1,1.6c0.7,1,1,2.3,1,4h1.3c0-1.3,0.5-2.6,1.4-4l1.1-1.6h3.7l-4.9,6.8l5.3,7.2
	h-4.2l-1.3-1.9c-0.7-1-1-2.3-1-4h-1.4c0,1.2-0.5,2.5-1.5,3.9l-1.3,2L109.5,22L109.5,22z"/>
<path class="st1" d="M124.7,18.4l3.2-1c0.3,1.6,1.5,2.5,3.4,2.5c0.8,0,1.4-0.1,1.8-0.4c0.4-0.3,0.7-0.7,0.7-1.2
	c0-0.4-0.2-0.8-0.5-1.1c-0.3-0.3-0.9-0.5-1.6-0.6l-1.9-0.3c-1.5-0.3-2.7-0.8-3.4-1.4c-0.7-0.6-1.1-1.5-1.1-2.8s0.5-2.3,1.6-3.1
	c1.1-0.8,2.4-1.2,4.1-1.2c1.6,0,2.8,0.3,3.8,1c1,0.7,1.7,1.4,2,2.4l-2.9,1.2c-0.5-1.4-1.5-2.1-3.1-2.1c-0.7,0-1.3,0.2-1.7,0.4
	c-0.4,0.3-0.6,0.7-0.6,1.1c0,0.4,0.1,0.7,0.4,1c0.3,0.2,0.9,0.4,1.7,0.6l1.8,0.3c1.3,0.2,2.4,0.7,3.4,1.4c0.9,0.7,1.4,1.7,1.4,2.9
	c0,1.4-0.5,2.5-1.7,3.3c-1.1,0.8-2.6,1.2-4.5,1.2c-1.6,0-3-0.4-4.2-1.1C125.7,20.6,125,19.6,124.7,18.4L124.7,18.4z"/>
<path class="st1" d="M141.3,18.4v-7.8h-3V8h3V3.6h3.4V8h3.7v2.7h-3.7v7.2c0,0.9,0.4,1.3,1.3,1.3h3V22h-4.2c-1.1,0-2-0.3-2.6-0.9
	C141.6,20.4,141.3,19.5,141.3,18.4L141.3,18.4z"/>
<path class="st1" d="M151.5,17.3V8h3.4v8.5c0,2,0.8,3,2.4,3c1.2,0,2-0.5,2.5-1.4c0.5-0.9,0.7-2.1,0.7-3.5V8h3.4v14h-3.2
	c0-0.9,0.4-2,1.3-3.2h-1.6c-0.9,2.4-2.3,3.6-4.4,3.6c-1.4,0-2.5-0.5-3.3-1.4C151.9,20.1,151.5,18.9,151.5,17.3L151.5,17.3z"/>
<path class="st1" d="M167.2,15c0-2.2,0.5-4,1.6-5.3c1.1-1.4,2.5-2,4.1-2c2.2,0,3.7,1.1,4.6,3.3h1.6c-0.5-0.8-0.9-1.5-1.1-2.3
	c-0.2-0.8-0.4-1.9-0.4-3.3v-3h3.4V22h-3.1c0-0.8,0.4-1.7,1.2-2.9h-1.6c-0.5,1-1.1,1.9-1.7,2.5c-0.7,0.6-1.6,0.9-2.9,0.9
	c-1.7,0-3.1-0.7-4.1-2.1C167.7,19,167.2,17.2,167.2,15L167.2,15z M177.8,15c0-1.5-0.3-2.7-1-3.5c-0.7-0.8-1.5-1.2-2.6-1.2
	c-2.3,0-3.5,1.6-3.5,4.7s1.2,4.7,3.5,4.7c1.1,0,1.9-0.4,2.6-1.2C177.5,17.7,177.8,16.5,177.8,15z"/>
<path class="st1" d="M185.1,5.8V2.3h3.7v3.5H185.1z M185.2,22V8h3.4v14H185.2z"/>
<path class="st1" d="M191.8,15c0-2.2,0.7-3.9,2-5.3c1.3-1.4,3-2.1,5.1-2.1c2.1,0,3.8,0.7,5.1,2.1c1.3,1.4,2,3.2,2,5.3s-0.7,4-2,5.4
	c-1.3,1.4-3,2.1-5.1,2.1s-3.7-0.7-5-2.1C192.5,18.9,191.8,17.1,191.8,15L191.8,15z M202.4,15.1c0-1.5-0.3-2.7-1-3.5
	c-0.6-0.8-1.5-1.2-2.5-1.2c-1.1,0-1.9,0.4-2.6,1.2c-0.6,0.8-0.9,2-0.9,3.5s0.3,2.6,0.9,3.4c0.6,0.8,1.5,1.2,2.6,1.2
	c1.1,0,1.9-0.4,2.6-1.2C202.1,17.7,202.4,16.5,202.4,15.1z"/>
<linearGradient id="SVGID_1_" gradientUnits="userSpaceOnUse" x1="21.6606" y1="28.25" x2="9.094947e-13" y2="28.25" gradientTransform="matrix(1 0 0 -1 0 32)">
	<stop  offset="0" style="stop-color:#6478FF"/>
	<stop  offset="1" style="stop-color:#5014FF"/>
</linearGradient>
<path class="st2" d="M13,0c2.8,0,5.2,1.5,6.5,3.8l2.2,3.8H4.3L0,0H13z"/>
<linearGradient id="SVGID_00000088822979585233324020000000593219650420661924_" gradientUnits="userSpaceOnUse" x1="20.5777" y1="15.1202" x2="31.398" y2="33.8798" gradientTransform="matrix(1 0 0 -1 0 32)">
	<stop  offset="0" style="stop-color:#FF8C78"/>
	<stop  offset="1" style="stop-color:#FF1E50"/>
</linearGradient>
<path style="fill:url(#SVGID_00000088822979585233324020000000593219650420661924_);" d="M28.2,11.2c-1.4,2.4-3.9,3.8-6.5,3.8h-4.3
	L26,0h8.7L28.2,11.2z"/>
<linearGradient id="SVGID_00000050655343883743434190000000612660614883062962_" gradientUnits="userSpaceOnUse" x1="9.7583" y1="22.6248" x2="20.5838" y2="3.8735" gradientTransform="matrix(1 0 0 -1 0 32)">
	<stop  offset="0" style="stop-color:#00A5FF"/>
	<stop  offset="1" style="stop-color:#003CB4"/>
</linearGradient>
<path style="fill:url(#SVGID_00000050655343883743434190000000612660614883062962_);" d="M10.8,18.8c-1.4-2.4-1.3-5.3,0-7.5L13,7.5
	l8.7,15L17.3,30L10.8,18.8z"/>
</svg>
