<?xml version="1.0" encoding="UTF-8"?>
<svg id="Capa_1" xmlns="http://www.w3.org/2000/svg" version="1.1" viewBox="0 0 35 40">
  <!-- Generator: Adobe Illustrator 29.1.0, SVG Export Plug-In . SVG Version: 2.1.0 Build 142)  -->
  <defs>
    <style>
      .st0 {
        fill: #00c864;
      }
    </style>
  </defs>
  <g>
    <path class="st0" d="M19.9,17h-11.7v.4l6.5,1.5v11c0,.3.2.5.5.5h4.8c.3,0,.5-.2.5-.5v-12.4c0-.3-.2-.5-.5-.5Z"/>
    <path class="st0" d="M20.4,9.8c0-.3-.2-.5-.5-.5h-4.8c-.3,0-.5.2-.5.5v4.8c0,.3.2.5.5.5h11.7v-.4l-6.5-1.5v-3.3Z"/>
  </g>
  <path class="st0" d="M17.5,2.5c.2,0,.4,0,.6.2l14,7.9c.4.2.6.6.6,1v16.8c0,.4-.2.8-.6,1l-14,7.9c-.2,0-.4.2-.6.2s-.4,0-.6-.2l-14-7.9c-.4-.2-.6-.6-.6-1V11.6c0-.4.2-.8.6-1l14-7.9c.2,0,.4-.2.6-.2M17.5.2c-.6,0-1.2.2-1.7.5L1.8,8.6c-1.1.6-1.8,1.8-1.8,3v16.8c0,1.3.7,2.4,1.8,3l14,7.9c.5.3,1.1.5,1.7.5s1.2-.2,1.7-.5l14-7.9c1.1-.6,1.8-1.8,1.8-3V11.6c0-1.3-.7-2.4-1.8-3L19.2.6c-.5-.3-1.1-.5-1.7-.5h0Z"/>
</svg>