<?xml version="1.0" encoding="UTF-8"?>
<svg id="Capa_1" xmlns="http://www.w3.org/2000/svg" version="1.1" viewBox="0 0 166 30">
  <!-- Generator: Adobe Illustrator 29.1.0, SVG Export Plug-In . SVG Version: 2.1.0 Build 142)  -->
  <defs>
    <style>
      .st0 {
        fill: #fff;
      }
    </style>
  </defs>
  <rect class="st0" x="1.7" y="7.3" width="2.6" height="15.3" rx="1.2" ry="1.2"/>
  <path class="st0" d="M18.3,8.6c0-.7-.6-1.3-1.3-1.3H7.7c-.7,0-1.3.6-1.3,1.3h0c0,.7.6,1.3,1.3,1.3h3.4v11.5c0,.7.6,1.3,1.3,1.3h0c.7,0,1.3-.6,1.3-1.3v-11.5h3.4c.7,0,1.3-.6,1.3-1.3h0Z"/>
  <path class="st0" d="M61.4,20.1v-11.5c0-.7-.6-1.3-1.3-1.3h0c-.7,0-1.3.6-1.3,1.3v11.5s0,1.3,0,1.3c0,.7.6,1.3,1.3,1.3h6.8c.7,0,1.3-.6,1.3-1.3h0c0-.7-.6-1.3-1.3-1.3h-5.5Z"/>
  <path class="st0" d="M150.7,8.6h0c0-.7-.6-1.3-1.3-1.3h-7.7c-.7,0-1.3.6-1.3,1.3v12.8c0,.7.6,1.3,1.3,1.3h7.7c.7,0,1.3-.6,1.3-1.3h0c0-.7-.6-1.3-1.3-1.3h-6.4v-3.8h4.7c.7,0,1.3-.6,1.3-1.3h0c0-.7-.6-1.3-1.3-1.3h-4.7v-3.8h6.4c.7,0,1.3-.6,1.3-1.3Z"/>
  <path class="st0" d="M48.7,7.3c-4.2,0-7.7,3.4-7.7,7.7s3.4,7.7,7.7,7.7,7.7-3.4,7.7-7.7-3.4-7.7-7.7-7.7ZM48.7,20.1c-2.8,0-5.1-2.3-5.1-5.1s2.3-5.1,5.1-5.1,5.1,2.3,5.1,5.1-2.3,5.1-5.1,5.1Z"/>
  <path class="st0" d="M114.5,7.3c-4.2,0-7.7,3.4-7.7,7.7s3.4,7.7,7.7,7.7,7.7-3.4,7.7-7.7-3.4-7.7-7.7-7.7ZM114.5,20.1c-2.8,0-5.1-2.3-5.1-5.1s2.3-5.1,5.1-5.1,5.1,2.3,5.1,5.1-2.3,5.1-5.1,5.1Z"/>
  <path class="st0" d="M81.9,7.3c-.7,0-1.3.6-1.3,1.3v7.5c0,2-1.5,3.8-3.5,4s-4.2-1.6-4.2-3.8v-7.7c0-.7-.6-1.3-1.3-1.3h0c-.7,0-1.3.6-1.3,1.3v7.4c0,3.5,2.7,6.6,6.2,6.7s6.6-2.8,6.6-6.4v-7.7c0-.7-.6-1.3-1.3-1.3h0Z"/>
  <path class="st0" d="M96.5,19.1c-1.1.9-2.6,1.3-4.2.9s-3.5-2-3.9-3.9c-.7-3.3,1.8-6.2,5-6.2s2.2.4,3.1,1,1.1.3,1.6,0h0c.6-.5.6-1.5,0-2-1.3-.9-2.8-1.5-4.5-1.5-4.1,0-7.7,3.3-7.8,7.5-.1,4.3,3.4,7.9,7.7,7.9s3.3-.6,4.6-1.5c.6-.5.7-1.4,0-2h0c-.4-.4-1.1-.4-1.6,0Z"/>
  <rect class="st0" x="101.7" y="7.3" width="2.6" height="15.3" rx="1.2" ry="1.2"/>
  <path class="st0" d="M135,8.6v9.6s-7.2-10.2-7.2-10.2c-.3-.4-.8-.7-1.4-.7h0c-.9,0-1.7.8-1.7,1.7v12.4c0,.7.6,1.3,1.3,1.3h0c.7,0,1.3-.6,1.3-1.3v-9.6s7.2,10.2,7.2,10.2c.3.4.8.7,1.4.7h0c.9,0,1.7-.7,1.7-1.7v-12.4c0-.7-.6-1.3-1.3-1.3h0c-.7,0-1.3.6-1.3,1.3Z"/>
  <g>
    <path class="st0" d="M30.1,11.9c0,0,0,.1,0,.2,0,0,0-.1,0-.2Z"/>
    <path class="st0" d="M30.5,12.6s0,0,.2.1c0,0-.1,0-.2-.1Z"/>
    <path class="st0" d="M30.3,12.3c0,0,0,.2.2.2,0,0-.1-.1-.2-.2Z"/>
    <path class="st0" d="M33.7,13.8c-2.8-.7-3.6-1.2-3.6-2.4h0c0-1.1,1-1.9,2.5-1.9s2.3.4,3.5,1.1c.2.1.4.2.7.2.7,0,1.2-.5,1.2-1.2s-.3-.9-.6-1c-1.4-.9-3-1.4-4.7-1.4-3,0-5.1,1.8-5.1,4.3h0c0,2.8,1.7,3.7,5,4.5,2.9.7,3.4,1.3,3.4,2.3h0c0,1.2-1.1,2-2.7,2s-2.9-.5-4.2-1.5c-.2-.2-.4-.2-.8-.2-.7,0-1.2.5-1.2,1.2s.2.8.5,1c1.7,1.2,3.6,1.9,5.6,1.9,3.2,0,5.3-1.7,5.3-4.4h0c0-2.3-1.3-3.6-4.8-4.4Z"/>
    <path class="st0" d="M37.1,15.2c0,0-.1,0-.2-.1,0,0,.1,0,.2.1Z"/>
    <path class="st0" d="M38.1,16.4c0-.2-.2-.3-.3-.4,0,.1.2.3.3.4Z"/>
    <path class="st0" d="M38.3,17.1c0-.1,0-.3-.1-.4,0,.1,0,.3.1.4Z"/>
    <path class="st0" d="M37.3,15.4c.1.1.2.2.3.4-.1-.1-.2-.2-.3-.4Z"/>
    <path class="st0" d="M38.4,17.9c0,0,0-.2,0-.2,0,0,0,.2,0,.2Z"/>
  </g>
  <g>
    <path class="st0" d="M156,11.9c0,0,0,.1,0,.2,0,0,0-.1,0-.2Z"/>
    <path class="st0" d="M156.4,12.6s0,0,.2.1c0,0-.1,0-.2-.1Z"/>
    <path class="st0" d="M156.1,12.3c0,0,0,.2.2.2,0,0-.1-.1-.2-.2Z"/>
    <path class="st0" d="M159.5,13.8c-2.8-.7-3.6-1.2-3.6-2.4h0c0-1.1,1-1.9,2.5-1.9s2.3.4,3.5,1.1c.2.1.4.2.7.2.7,0,1.2-.5,1.2-1.2s-.3-.9-.6-1c-1.4-.9-3-1.4-4.7-1.4-3,0-5.1,1.8-5.1,4.3h0c0,2.8,1.7,3.7,5,4.5,2.9.7,3.4,1.3,3.4,2.3h0c0,1.2-1.1,2-2.7,2s-2.9-.5-4.2-1.5c-.2-.2-.4-.2-.8-.2-.7,0-1.2.5-1.2,1.2s.2.8.5,1c1.7,1.2,3.6,1.9,5.6,1.9,3.2,0,5.3-1.7,5.3-4.4h0c0-2.3-1.3-3.6-4.8-4.4Z"/>
    <path class="st0" d="M162.9,15.2c0,0-.1,0-.2-.1,0,0,.1,0,.2.1Z"/>
    <path class="st0" d="M164,16.4c0-.2-.2-.3-.3-.4,0,.1.2.3.3.4Z"/>
    <path class="st0" d="M164.2,17.1c0-.1,0-.3-.1-.4,0,.1,0,.3.1.4Z"/>
    <path class="st0" d="M163.2,15.4c.1.1.2.2.3.4-.1-.1-.2-.2-.3-.4Z"/>
    <path class="st0" d="M164.3,17.9c0,0,0-.2,0-.2,0,0,0,.2,0,.2Z"/>
  </g>
</svg>