<?xml version="1.0" encoding="UTF-8"?>
<svg id="Layer_1" xmlns="http://www.w3.org/2000/svg" version="1.1" viewBox="0 0 24 24">
  <!-- Generator: Adobe Illustrator 29.1.0, SVG Export Plug-In . SVG Version: 2.1.0 Build 142)  -->
  <path d="M7.3,9.2c-.2.2-.3.5-.3.8,0,.3.1.6.4.9l2.5,2.2c.2.2.2.5,0,.7-.2.2-.5.2-.7,0l-2.5-2.3c-.4-.4-.7-1-.7-1.6s.2-1.1.6-1.6l2.5-2.3c.2-.2.5-.2.7,0s.2.5,0,.7l-2.5,2.3h0ZM14.2,13.1c-.2.2-.2.5,0,.7.2.2.5.2.7,0l2.5-2.3c.4-.4.7-1,.7-1.6s-.2-1.1-.7-1.6l-2.5-2.3c-.2-.2-.5-.2-.7,0-.2.2-.2.5,0,.7l2.5,2.3c.2.2.4.5.4.9,0,.3-.1.6-.3.8l-2.5,2.3h0ZM10.5,17h-.8l-.9-.9c0,0-.2-.1-.4-.1H3V7.5c0-1.9,1.6-3.5,3.5-3.5h11c1.9,0,3.5,1.6,3.5,3.5v1c0,.3.2.5.5.5s.5-.2.5-.5v-1c0-2.5-2-4.5-4.5-4.5H6.5c-2.5,0-4.5,2-4.5,4.5v8.6c-1.1.2-2,1.2-2,2.4s1.1,2.5,2.5,2.5h6c.3,0,.5-.2.5-.5s-.2-.5-.5-.5H2.5c-.8,0-1.5-.7-1.5-1.5s.7-1.5,1.5-1.5h5.8l.9.9c0,0,.2.1.4.1h1c.3,0,.5-.2.5-.5s-.2-.5-.5-.5h0ZM24,13.5c0,.7-.3,1.3-.7,1.8l-7.7,7.7c-.7.7-1.6,1-2.5,1h-1.6c-.3,0-.5-.2-.5-.5v-1.6c0-.9.4-1.8,1-2.5l7.7-7.7c.9-.9,2.6-.9,3.5,0,.5.5.7,1.1.7,1.8h0ZM23,13.5c0-.4-.2-.8-.4-1.1-.6-.6-1.6-.6-2.1,0l-7.7,7.7c-.5.5-.7,1.1-.7,1.8v1.1h1.1c.7,0,1.3-.3,1.8-.7l7.7-7.7c.3-.3.4-.7.4-1.1h0Z"/>
</svg>