<?xml version="1.0" encoding="UTF-8"?>
<svg id="Layer_1" xmlns="http://www.w3.org/2000/svg" version="1.1" viewBox="0 0 24 24">
  <!-- Generator: Adobe Illustrator 29.1.0, SVG Export Plug-In . SVG Version: 2.1.0 Build 142)  -->
  <path d="M20,0h-10.5C9.2,0,9,.2,9,.5s.2.5.5.5h10.5c1.7,0,3,1.3,3,3v7c0,1.7-1.3,3-3,3v-1c0-.6-.4-1-1-1h-3c-.6,0-1,.4-1,1v1h-5.5c-.3,0-.5.2-.5.5s.2.5.5.5h10.5c2.2,0,4-1.8,4-4v-7C24,1.8,22.2,0,20,0ZM16,13h3v1h-3v-1ZM4.5,5c1.4,0,2.5-1.1,2.5-2.5S5.9,0,4.5,0s-2.5,1.1-2.5,2.5,1.1,2.5,2.5,2.5ZM4.5,1c.8,0,1.5.7,1.5,1.5s-.7,1.5-1.5,1.5-1.5-.7-1.5-1.5.7-1.5,1.5-1.5ZM7,9.5v14c0,.3-.2.5-.5.5s-.5-.2-.5-.5v-6.5h-3v6.6c0,.3-.2.5-.5.5s-.5-.2-.5-.5v-6.9c-1.2-.6-2-1.8-2-3.1v-4c0-1.9,1.6-3.5,3.5-3.5h11c.3,0,.5.2.5.5s-.2.5-.5.5H3.5c-1.4,0-2.5,1.1-2.5,2.5v4c0,1.4,1.1,2.5,2.5,2.5h2.5v-6.5c0-.3.2-.5.5-.5s.5.2.5.5h0Z"/>
</svg>