<?xml version="1.0" encoding="UTF-8"?>
<svg id="Layer_1" xmlns="http://www.w3.org/2000/svg" version="1.1" viewBox="0 0 24 24">
  <!-- Generator: Adobe Illustrator 29.1.0, SVG Export Plug-In . SVG Version: 2.1.0 Build 142)  -->
  <path d="M11,23.2c0,.3,0,.5-.3.6-.4.1-.8.2-1.2.2h-1c-1.9,0-3.5-1.6-3.5-3.5v-.3c0-1.7-.7-3.3-2-4.4C.8,13.7-.3,10.7,0,7.7.6,3.7,3.9.5,7.9,0c4.7-.5,9.1,2.7,9.9,7.4,0,.3-.1.5-.4.6-.3,0-.5-.1-.6-.4-.7-4.1-4.6-7-8.8-6.5-3.5.4-6.5,3.3-7,6.8-.4,2.7.6,5.3,2.6,7.1.9.8,1.6,1.9,2,3h2.8v-7.5c-1.4-.2-2.5-1.5-2.5-3s.2-.5.5-.5.5.2.5.5c0,1.1.9,2,2,2s2-.9,2-2,.2-.5.5-.5.5.2.5.5c0,1.5-1.1,2.7-2.5,3v8c0,.3-.2.5-.5.5h-3.1c0,.4,0,.8,0,1.2v.3c0,1.4,1.1,2.5,2.5,2.5h1c.3,0,.6,0,.8-.1.3,0,.5,0,.6.3h0ZM19,17c0,1.1-.9,2-2,2s-2-.9-2-2,.9-2,2-2,2,.9,2,2ZM18,17c0-.6-.4-1-1-1s-1,.4-1,1,.4,1,1,1,1-.4,1-1ZM23.2,19.4c.1.4,0,.8-.2,1.1-.2.3-.5.6-.9.7-.4.1-.8,0-1.1-.2l-.6-.4c-.5.5-1.2.9-1.9,1.1v.7c0,.8-.7,1.5-1.5,1.5s-1.5-.7-1.5-1.5v-.7c-.7-.2-1.3-.6-1.9-1.1l-.6.4c-.3.2-.8.3-1.1.2s-.7-.3-.9-.7c-.2-.3-.3-.7-.2-1.1s.3-.7.7-.9l.6-.4c0-.4-.1-.7-.1-1.1s0-.7.1-1.1l-.6-.4c-.3-.2-.6-.5-.7-.9s0-.8.2-1.1c.2-.3.5-.6.9-.7.4-.1.8,0,1.1.2l.6.4c.5-.5,1.2-.9,1.9-1.1v-.7c0-.8.7-1.5,1.5-1.5s1.5.7,1.5,1.5v.7c.7.2,1.3.6,1.9,1.1l.6-.4c.3-.2.8-.3,1.1-.2.4.1.7.3.9.7s.3.8.2,1.1c-.1.4-.3.7-.7.9l-.6.4c0,.4.1.7.1,1.1s0,.7-.1,1.1l.6.4c.3.2.6.5.7.9h0ZM22.2,19.6c0-.1-.1-.2-.2-.3l-1-.6c-.2-.1-.3-.4-.2-.6.1-.4.2-.8.2-1.2s0-.7-.2-1.2c0-.2,0-.5.2-.6l1-.6c.1,0,.2-.2.2-.3s0-.3,0-.4c0-.1-.2-.2-.3-.2-.1,0-.3,0-.4,0l-1,.6c-.2.1-.5,0-.6,0-.5-.6-1.2-1-2-1.2-.2,0-.4-.3-.4-.5v-1.1c0-.3-.2-.5-.5-.5s-.5.2-.5.5v1.1c0,.2-.2.4-.4.5-.8.2-1.5.6-2,1.2-.2.2-.4.2-.6,0l-1-.6c-.1,0-.3,0-.4,0-.1,0-.2.1-.3.2,0,.1,0,.2,0,.4s.1.2.2.3l1,.6c.2.1.3.4.2.6-.1.4-.2.8-.2,1.2s0,.7.2,1.2c0,.2,0,.5-.2.6l-1,.6c-.1,0-.2.2-.2.3,0,.1,0,.3,0,.4,0,.1.2.2.3.2.1,0,.3,0,.4,0l1-.6c0,0,.2,0,.3,0,.1,0,.3,0,.4.2.6.6,1.2,1,2,1.2.2,0,.4.3.4.5v1.1c0,.3.2.5.5.5s.5-.2.5-.5v-1.1c0-.2.2-.4.4-.5.8-.2,1.5-.6,2-1.2.2-.2.4-.2.6,0l1,.6c.1,0,.3,0,.4,0,.1,0,.2-.1.3-.2,0-.1,0-.2,0-.4h0Z"/>
</svg>