<?xml version="1.0" encoding="UTF-8"?>
<svg id="Layer_1" xmlns="http://www.w3.org/2000/svg" version="1.1" viewBox="0 0 24 24">
  <!-- Generator: Adobe Illustrator 29.1.0, SVG Export Plug-In . SVG Version: 2.1.0 Build 142)  -->
  <path d="M23.9,23.9c0,0-.2.1-.4.1s-.3,0-.4-.1l-6.4-6.4c-1.8,1.6-4.1,2.6-6.7,2.6-5.5,0-10-4.5-10-10S4.5,0,10,0s4.4.7,6.1,2.1c.2.2.3.5,0,.7s-.5.3-.7,0c-1.6-1.2-3.5-1.9-5.5-1.9C5,1,1,5,1,10s.5,3.2,1.2,4.5l4.7-5.6c.3-.3.6-.5,1-.5.4,0,.8.1,1.1.4l2.1,2.1c0,0,.2.1.3.1.1,0,.2,0,.3-.1L21.1.2c.2-.2.5-.2.7,0,.2.2.2.5,0,.7l-9.3,10.7c-.3.3-.6.5-1,.5-.4,0-.8-.1-1.1-.4l-2.1-2.1c0,0-.2-.1-.3-.1-.1,0-.2,0-.3.2l-4.9,5.8c1.6,2.2,4.2,3.6,7.2,3.6,5,0,9-4,9-9s-.1-1.6-.3-2.4c0-.3,0-.5.4-.6.3,0,.5,0,.6.4.2.9.4,1.7.4,2.6,0,2.6-1,4.9-2.6,6.7l6.4,6.4c.2.2.2.5,0,.7h0Z"/>
</svg>