<?xml version="1.0" encoding="UTF-8"?>
<svg id="Layer_1" xmlns="http://www.w3.org/2000/svg" version="1.1" viewBox="0 0 24 24">
  <!-- Generator: Adobe Illustrator 29.1.0, SVG Export Plug-In . SVG Version: 2.1.0 Build 142)  -->
  <path d="M4,4.5c0-.3.2-.5.5-.5h3.5V.5c0-.3.2-.5.5-.5s.5.2.5.5v3.5h3.5c.3,0,.5.2.5.5s-.2.5-.5.5h-3.5v3.5c0,.3-.2.5-.5.5s-.5-.2-.5-.5v-3.5h-3.5c-.3,0-.5-.2-.5-.5ZM23.3,13.2l-6.8,7.6c-1.8,2-4.4,3.2-7.1,3.2H3.5c-1.9,0-3.5-1.6-3.5-3.5v-5c0-1.9,1.6-3.5,3.5-3.5h9.9c1.2,0,2.2.8,2.5,1.9l3.7-4.1c.5-.5,1.1-.8,1.7-.8.7,0,1.3.2,1.8.7,1,.9,1.1,2.5.2,3.5ZM22.5,10.4c-.3-.3-.7-.4-1.1-.4-.4,0-.8.2-1,.5l-4.5,4.9c-.3.9-1.1,1.7-2.1,1.8l-6.2.7c-.3,0-.5-.2-.6-.4s.2-.5.4-.6l6.2-.7c.8-.1,1.4-.8,1.4-1.6s-.7-1.6-1.6-1.6H3.5c-1.4,0-2.5,1.1-2.5,2.5v5c0,1.4,1.1,2.5,2.5,2.5h6c2.4,0,4.7-1,6.3-2.8l6.8-7.6c.5-.6.5-1.6-.1-2.1h0Z"/>
</svg>